<svg xmlns="http://www.w3.org/2000/svg" viewBox="0 0 24 24">
    <path d="M22.183 11.923h-3.39c-.516 0-.797.666-.797 1.166s.28 1.364.798 1.364h1.612v.98c0 1.556-.798 2.288-2.09 2.288-1.294 0-2.218-.737-2.218-2.29V9.888c0-1.557.902-2.29 2.24-2.29 1.694 0 2.007 1.035 2.073 1.976 0 .622.623.814 1.294.814.858 0 1.293-.237 1.293-1.243 0-2.388-2.008-3.824-4.765-3.824-2.526 0-4.633 1.243-4.633 4.56v5.558c0 3.323 2.08 4.56 4.714 4.56s4.682-1.242 4.682-4.56v-2.663a.796.796 0 0 0-.737-.853h-.077zm-16.54-1.15h-1.53l.238-3.19h4.485c.517 0 .776-.623.776-1.244s-.263-1.245-.775-1.245H2.7c-.297 0-.462.32-.5.814l-.518 5.43v.517c0 .622.22 1.3 1.034 1.3H5.66c1.293 0 2.09.428 2.09 1.94v.397c0 1.513-.797 2.212-2.112 2.212-1.155 0-2.052-.534-2.052-1.513 0-.56-.198-.996-1.293-.996-.814 0-1.293.264-1.293 1.177 0 1.865 1.656 3.604 4.7 3.604 2.57 0 4.637-1.243 4.637-4.484v-.38c-.01-3.114-2.058-4.34-4.693-4.34z"/>
</svg>
