<svg viewBox="0 0 554 553" xmlns="http://www.w3.org/2000/svg"><path d="M293.526 292.605l242.325-.07c9.193.282 16.9-6.86 17.184-16.052.353-9.122-6.86-16.9-16.052-17.183l-243.456.07.07-241.76c.354-9.262-6.86-16.9-15.98-17.252-9.193-.283-16.9 6.86-17.183 16.05l-.14 243.387-242.185-.07c-9.193-.283-16.9 6.858-17.183 16.05-.283 9.193 6.86 16.9 16.05 17.183l243.458-.07-.07 242.325c-.284 9.193 6.858 16.9 16.05 17.183 9.193.283 16.9-6.86 17.183-16.05l-.07-243.74z" fill-rule="nonzero" fill="currentColor"/></svg>
