<svg xmlns="http://www.w3.org/2000/svg" viewBox="0 0 24 24"><path fill="currentColor" d="M12 2.85c.197 0 .393.1.5.3l8.876 16.46a.568.568 0 0 1-.5.838H3.124a.568.568 0 0 1-.5-.838L11.5 3.15a.56.56 0 0 1 .5-.3m0-1.552a2.12 2.12 0 0 0-1.867 1.114l-8.876 16.46c-.358.664-.34 1.446.046 2.094S2.37 22 3.123 22h17.754c.754 0 1.435-.387 1.82-1.034.387-.647.404-1.43.047-2.094l-8.877-16.46A2.117 2.117 0 0 0 12 1.298z"/><path fill="currentColor" d="M12.862 14.46V7.733a.862.862 0 0 0-1.724 0v6.726a.862.862 0 0 0 1.724 0z"/><circle fill="currentColor" cx="12" cy="18.083" r=".866" /></svg>
