<?xml version="1.0" encoding="utf-8"?>
<!-- Generator: Adobe Illustrator 24.3.0, SVG Export Plug-In . SVG Version: 6.00 Build 0)  -->
<svg version="1.1" id="Layer_1" xmlns="http://www.w3.org/2000/svg" xmlns:xlink="http://www.w3.org/1999/xlink" x="0px" y="0px"
	 viewBox="0 0 24 24" style="enable-background:new 0 0 24 24;" xml:space="preserve">
<style type="text/css">
	.st0{fill:currentColor;}
</style>
<path class="st0" d="M18.42,0.96v22.05c0,0.08-0.07,0.15-0.16,0.15H5.74c-0.09,0-0.16-0.07-0.16-0.15V5c0-0.07,0.05-0.12,0.11-0.14
	L18.42,0.96 M18.76,0c-0.05,0-0.1,0.01-0.15,0.02L5.45,4.06C5.03,4.19,4.74,4.57,4.74,5v18.01c0,0.55,0.45,0.99,1,0.99h12.51
	c0.55,0,1-0.44,1-0.99V0.5C19.26,0.21,19.02,0,18.76,0L18.76,0z"/>
<path class="st0" d="M9.44,12.79c-0.4,0-0.73,0.33-0.73,0.73v2.19c0,0.4,0.33,0.73,0.73,0.73s0.73-0.33,0.73-0.73v-2.19
	C10.17,13.12,9.85,12.79,9.44,12.79z M14.56,8.77c-0.4,0-0.73,0.33-0.73,0.73v6.21c0,0.4,0.33,0.73,0.73,0.73s0.73-0.33,0.73-0.73
	V9.5C15.29,9.1,14.96,8.77,14.56,8.77z M12,10.6c-0.4,0-0.73,0.33-0.73,0.73v4.38c0,0.4,0.33,0.73,0.73,0.73s0.73-0.33,0.73-0.73
	v-4.38C12.73,10.92,12.4,10.6,12,10.6z"/>
</svg>
