<svg xmlns="http://www.w3.org/2000/svg" viewBox="0 0 400 400"><path fill="currentColor" d="M367.7 57.3H32C14.2 57.3-.1 71.7-.1 89.4v221.4c0 17.8 14.4 32.1 32.1 32.1h335.7c17.8 0 32.1-14.4 32.1-32.1V89.5c0-17.8-14.4-32.2-32.1-32.2zm3.5 257.2H28.4V85.9h342.9v228.6z"/><path fill="currentColor" d="M64.1 107.3c7.9 0 14.3 6.4 14.3 14.3s-6.4 14.3-14.3 14.3-14.3-6.4-14.3-14.3 6.4-14.3 14.3-14.3zM107 107.3c7.9 0 14.3 6.4 14.3 14.3s-6.4 14.3-14.3 14.3-14.3-6.4-14.3-14.3 6.4-14.3 14.3-14.3zM149.8 107.3c7.9 0 14.3 6.4 14.3 14.3s-6.4 14.3-14.3 14.3-14.3-6.4-14.3-14.3 6.4-14.3 14.3-14.3z"/></svg>
