<svg xmlns="http://www.w3.org/2000/svg" viewBox="0 0 16 16"><path fill="currentColor" d="M12 2h.99A3.005 3.005 0 0 1 16 5.003v7.994A3 3 0 0 1 12.99 16H3.01A3.005 3.005 0 0 1 0 12.997V5.003A3 3 0 0 1 3.01 2H4V.49A.5.5 0 0 1 4.5 0c.276 0 .5.215.5.49V2h6V.49a.5.5 0 0 1 .5-.49c.276 0 .5.215.5.49V2zm0 1v.51a.5.5 0 0 1-.5.49.492.492 0 0 1-.5-.49V3H5v.51a.5.5 0 0 1-.5.49.492.492 0 0 1-.5-.49V3h-.99A2 2 0 0 0 1 5.003v7.994C1 14.104 1.898 15 3.01 15h9.98A2 2 0 0 0 15 12.997V5.003A2.005 2.005 0 0 0 12.99 3H12z"/></svg>
