<svg xmlns="http://www.w3.org/2000/svg" viewBox="0 0 41 41"><path fill="currentColor" d="M11.6 38.4h-7c-2.2 0-3.9-1.8-3.9-3.9v-17c0-2.2 1.8-3.9 3.9-3.9h7c2.2 0 3.9 1.8 3.9 3.9v17c.1 2.1-1.7 3.9-3.9 3.9zM4.7 16c-.8 0-1.4.6-1.4 1.4v17c0 .8.6 1.4 1.4 1.4h7c.8 0 1.4-.6 1.4-1.4v-17c0-.8-.6-1.4-1.4-1.4h-7zM35.9 2.6H23.7c-2.4 0-4.4 2-4.4 4.4v27c0 2.4 2 4.4 4.4 4.4h12.2c2.4 0 4.4-2 4.4-4.4V7c0-2.4-2-4.4-4.4-4.4zM37.7 34c0 1-.8 1.8-1.8 1.8H23.7c-1 0-1.8-.8-1.8-1.8V21.2h9.3c.7 0 1.2-.6 1.2-1.2 0-.7-.6-1.2-1.2-1.2H22v-4.3h9.3c.7 0 1.2-.6 1.2-1.2 0-.7-.6-1.2-1.2-1.2H22V7c0-1 .8-1.8 1.8-1.8H36c1 0 1.8.8 1.8 1.8v27z"/></svg>
