<svg version="1.1" id="Layer_1" xmlns="http://www.w3.org/2000/svg" xmlns:xlink="http://www.w3.org/1999/xlink" x="0px" y="0px" viewBox="0 0 16 16" style="enable-background:new 0 0 16 16;" xml:space="preserve"><path d="M8,15c3.9,0,7-3.1,7-7s-3.1-7-7-7S1,4.1,1,8S4.1,15,8,15z M8,16c-4.4,0-8-3.6-8-8s3.6-8,8-8s8,3.6,8,8S12.4,16,8,16z" fill="currentColor"/><g id="x" transform="translate(5.000000, 5.000000)"><path d="M3.7,3l2.1,2.1C6,5.4,6,5.7,5.9,5.9c-0.2,0.2-0.5,0.2-0.7,0L3,3.7L0.9,5.9c-0.2,0.2-0.5,0.2-0.7,0C0,5.7,0,5.4,0.1,5.2L2.3,3L0.1,0.9C0,0.7,0,0.4,0.1,0.2s0.5-0.2,0.7,0L3,2.3l2.1-2.1C5.3,0,5.7,0,5.9,0.2C6,0.4,6,0.7,5.9,0.9L3.7,3z" fill="currentColor"/>
</g>
</svg>
