<svg viewBox="0 0 16 16" xmlns="http://www.w3.org/2000/svg">
  <path d="M8.93 7.998l6.85-6.847c.177-.165.25-.414.19-.65-.06-.235-.244-.42-.48-.48-.235-.06-.485.014-.65.192L7.99 7.058 1.157.225C.99.047.74-.025.506.035c-.237.06-.42.243-.48.48-.06.234.012.484.19.65L7.064 8.01.212 14.85c-.178.165-.25.414-.19.65.06.235.243.42.48.48.234.06.484-.014.65-.192L8 8.942l6.848 6.846c.166.178.416.25.65.19.237-.06.42-.243.48-.478.06-.236-.012-.485-.19-.65L8.93 7.997z" fill="currentColor" fill-rule="evenodd"/>
</svg>
