<svg xmlns="http://www.w3.org/2000/svg" viewBox="0 0 400 400"><path fill="currentColor" d="M284.9 356.3c-4.8 0-9.7-.3-14.4-.9-7.5-.9-12.8-7.8-11.8-15.2 1-7.5 7.8-12.7 15.2-11.8 3.6.5 7.3.7 11 .7 48.4 0 87.8-39.4 87.8-87.8 0-48-39.1-87.4-87.1-87.7l-8.6-.1-3.6-7.8c-21.1-45.4-67-74.7-116.9-74.7-71.3-.1-129.2 57.8-129.2 129 0 59.9 40.6 111.5 98.7 125.5 7.3 1.8 11.8 9.1 10.1 16.4-1.8 7.3-9.1 11.9-16.4 10.1C49.2 335 0 272.5 0 200 0 113.8 70.2 43.7 156.4 43.7c57.7 0 110.9 32.3 137.9 83 59 4.8 105.7 54.5 105.7 114.6 0 63.4-51.6 115-115.1 115z"/><path fill="currentColor" d="M122.4 283.7c5.2 5.2 13.6 5.2 18.8 0l43.7-43.8.1 100.7c0 7.3 5.9 13.2 13.3 13.2 7.3 0 13.2-5.9 13.2-13.3l-.1-100.5 43.8 43.7c5.6 4.7 14 4 18.7-1.6 4.2-5 4.2-12.3-.1-17.3l-66.3-66.4c-5.2-5.2-13.6-5.2-18.7-.1l-.1.1-66.2 66.3c-5.3 5.4-5.3 13.8-.1 19z"/></svg>
