<svg xmlns="http://www.w3.org/2000/svg" viewBox="0 0 400 400"><path fill="currentColor" d="M275.7 265.1c-5.2-5.2-13.7-5.2-18.9 0l-43.9 44-.1-101.2c0-7.4-6-13.3-13.3-13.3-7.4 0-13.3 6-13.3 13.3l.1 101.1-44-43.9c-5.6-4.7-14-4-18.8 1.6-4.2 5-4.2 12.4.1 17.3l66.7 66.7c5.2 5.2 13.6 5.2 18.8.1l.1-.1 66.6-66.7c5.2-5.2 5.2-13.7-.1-18.9z"/><path fill="currentColor" d="M109.7 319.9C60.6 300.6 28.2 253.5 28.2 200c0-71.1 57.8-128.9 128.9-128.9 53.8 0 102.4 34.1 121 84.7l3.2 8.9 9.5.1c44.7.6 81 37.4 81 82 0 43.8-34.6 79.7-77.9 81.9h-.2c-7.6-.6-13.6 5.4-14 12.9-.4 7.6 5.8 14.1 13.4 14.5 1.8.1 3.7.2 5.5.2h.6c56-4.8 100.1-52.3 100.1-109.5 0-56.5-43.5-103.5-98.8-108.9-24.6-56.7-81.1-94.3-143.3-94.3C70.9 43.7.8 113.8.8 200c0 65.8 40.4 123.6 101.4 146.4l.2.1c7.3 2.3 14.9-1.7 17.2-9 2.3-7.2-1.7-14.9-9-17.2l-.9-.4z"/></svg>
