<svg viewBox="0 0 16 16" stroke-linecap="round" stroke-miterlimit="10" stroke-linejoin="round" color="currentColor" fill="currentColor" stroke="currentColor"><path d="M13.534 15.5L8 .5M2.466 15.5L8 .5M9.51 4.592l-5.02 5.423M6.49 4.592l5.02 5.423M4.49 10.015l8.625 4.417M11.51 10.015l-8.65 4.417M15.5.5a7.427 7.427 0 0 1-3.546 6.322M4.046 6.822A7.427 7.427 0 0 1 .5.5M11.16 4.666A5.006 5.006 0 0 0 13.472.5M2.527.5A5.006 5.006 0 0 0 4.84 4.666M5.637 2.51A2.538 2.538 0 0 1 4.554.5M10.363 2.51A2.538 2.538 0 0 0 11.446.5"/></svg>
