<svg xmlns="http://www.w3.org/2000/svg" viewBox="0 0 16 16"><path fill="currentColor" fill-rule="evenodd" d="M8 0a8 8 0 1 1-.002 16A8 8 0 0 1 8 0zm.01 14.67c3.68 0 6.66-2.984 6.66-6.67s-2.98-6.67-6.66-6.67C4.333 1.33 1.35 4.316 1.35 8a6.665 6.665 0 0 0 6.66 6.67zm1.81-5.155c-1.108 0-1.798-.615-2.27-1.26-.936-1.382-2.92-1.423-2.953.41a.536.536 0 0 1-.534.538.536.536 0 0 1-.537-.535c0-1.862 1.534-2.442 2.465-2.413 1.184-.048 1.844.564 2.346 1.273.666 1.036 2.84 1.694 3.112-.57a.537.537 0 0 1 .524-.546c.285.015.542.228.548.524-.044 2.353-2.056 2.58-2.7 2.58z"/></svg>
