<svg xmlns="http://www.w3.org/2000/svg"  viewBox="0 0 18 18">
    <g fill="currentColor" fill-rule="evenodd">
        <path d="M11 17.333v-1.066h5.679a.26.26 0 0 0 .254-.267v-4a.26.26 0 0 0-.254-.267H11v-1.066h3.667v-8a.667.667 0 1 1 1.333 0v8h.72c.707 0 1.28.597 1.28 1.333v4c0 .736-.573 1.333-1.28 1.333H16a.667.667 0 0 1-.667.667h-2a.667.667 0 0 1-.666-.667H11zM6.667 18h-2 2zM12 13.333a.667.667 0 1 1 0 1.334.667.667 0 0 1 0-1.334zm2.667 0a.667.667 0 1 1 0 1.334.667.667 0 0 1 0-1.334zM2 2h6a2 2 0 0 1 2 2v12a2 2 0 0 1-2 2H2a2 2 0 0 1-2-2V4a2 2 0 0 1 2-2zm0 1a1 1 0 0 0-1 1v12a1 1 0 0 0 1 1h6a1 1 0 0 0 1-1V4a1 1 0 0 0-1-1H2zm2 12h2a.5.5 0 1 1 0 1H4a.5.5 0 1 1 0-1z"/>
    </g>
</svg>
