<svg xmlns="http://www.w3.org/2000/svg" viewBox="0 0 400 400"><path fill="currentColor" d="M342.6 343.2c-18.8 0-36.5-9.1-47.3-24.2l-47.8-75.5h-97.4L105.4 319c-10.8 15.2-28.5 24.2-47.3 24.2-17.4 0-33.6-7.6-44.7-20.9-10.7-12.9-15.1-29.8-12-46.3l25.8-138.5c8.8-47.1 50.4-81.3 99.1-81.3h148.3c48.6 0 90.3 34.2 99.1 81.3L399.4 276c3.1 16.5-1.3 33.4-12.1 46.4-11 13.2-27.3 20.8-44.7 20.8zM138.1 222.3h121.2l53.8 84.9c6.5 9.1 17.7 14.8 29.6 14.8 11 0 21.3-4.8 28.3-13.2 6.7-8.1 9.5-18.7 7.6-28.9l-25.8-138.5c-6.9-37-39.8-63.9-78.1-63.9H126.2c-38.4 0-71.3 26.9-78.2 63.9L22.3 279.9c-1.9 10.3.9 20.8 7.6 28.9 7 8.4 17.3 13.2 28.3 13.2 11.8 0 22.9-5.6 29.7-15l50.2-84.7z"/></svg>
