<svg viewBox="0 0 13 16" xmlns="http://www.w3.org/2000/svg">
  <path d="M8.7 10.766c.245-.422.375-.905.375-1.398 0-1.486-1.153-2.69-2.575-2.69-.472 0-.934.135-1.338.39-1.215.773-1.6 2.428-.862 3.698l2.2 3.78 2.2-3.78zM6.5 5.92c1.822 0 3.298 1.543 3.298 3.447 0 .631-.166 1.25-.48 1.79L6.5 16l-2.818-4.842c-.946-1.626-.452-3.746 1.104-4.735A3.193 3.193 0 0 1 6.5 5.921zm0 4.284c.4 0 .723-.339.723-.756 0-.418-.323-.756-.723-.756-.4 0-.723.338-.723.756 0 .417.323.756.723.756zm0 .756c-.8 0-1.447-.677-1.447-1.512S5.701 7.937 6.5 7.937c.8 0 1.447.677 1.447 1.512S7.299 10.96 6.5 10.96zM3.346 6.153a.35.35 0 0 1-.512 0 .39.39 0 0 1 0-.535c2.025-2.115 5.307-2.115 7.332 0a.39.39 0 0 1 0 .535.35.35 0 0 1-.512 0 4.327 4.327 0 0 0-6.308 0zM1.982 4.727a.35.35 0 0 1-.512 0 .39.39 0 0 1 0-.534c2.778-2.903 7.282-2.903 10.06 0a.39.39 0 0 1 0 .534.35.35 0 0 1-.512 0c-2.495-2.607-6.541-2.607-9.036 0zM.617 3.302a.35.35 0 0 1-.511 0 .39.39 0 0 1 0-.535c3.531-3.69 9.257-3.69 12.788 0a.39.39 0 0 1 0 .535.35.35 0 0 1-.511 0C9.133-.093 3.866-.093.617 3.302z" fill="currentColor"/>
</svg>
