<svg xmlns="http://www.w3.org/2000/svg" viewBox="0 0 41 41"><path fill="currentColor" d="M14.6 16.4C13 18 12.2 20 12.2 22.2s.9 4.2 2.4 5.8c.3.3.8.3 1.2 0 .3-.3.3-.8 0-1.2-1.2-1.2-1.9-2.9-1.9-4.6s.7-3.4 1.9-4.7c2.6-2.6 6.7-2.6 9.3 0 1.2 1.2 1.9 2.9 1.9 4.7s-.7 3.4-1.9 4.6c-.3.3-.3.8 0 1.2.2.2.4.2.6.2s.4-.1.6-.2c1.6-1.6 2.4-3.6 2.4-5.8s-.9-4.3-2.4-5.8c-3.2-3.3-8.4-3.3-11.7 0z"/><path fill="currentColor" d="M22.5 19.1l-2.4 2.4c-.3.3-.3.7 0 1 .3.3.7.3 1 0l2.4-2.4c.3-.3.3-.7 0-1-.2-.3-.7-.3-1 0z"/><path fill="currentColor" d="M38.6 4.6H2.4C1.2 4.6.2 5.6.2 6.8v28.5c0 1.2 1 2.2 2.2 2.2h36.2c1.2 0 2.2-1 2.2-2.2V6.8c0-1.2-1-2.2-2.2-2.2zm.5 30.7c0 .3-.2.5-.5.5H2.4c-.3 0-.5-.2-.5-.5V6.8c0-.3.2-.5.5-.5h36.2c.3 0 .5.2.5.5v28.5z"/><circle fill="currentColor" cx="4.3" cy="8.7" r=".8"/><circle fill="currentColor" cx="7" cy="8.7" r=".8"/><circle fill="currentColor" cx="9.8" cy="8.7" r=".8"/></svg>
