<svg viewBox="0 0 16 16" xmlns="http://www.w3.org/2000/svg">
  <path d="M8 0C3.582 0 0 3.582 0 8s3.582 8 8 8 8-3.582 8-8-3.582-8-8-8zM1.333 8c0-3.682 2.985-6.667 6.667-6.667S14.667 4.318 14.667 8c0 3.677-2.977 6.66-6.654 6.667-3.695 0-6.68-2.985-6.68-6.667zm10-.667c-.177 0-.347.07-.473.194l-2.2 2.2v-5.06c0-.37-.298-.667-.667-.667-.368 0-.666.298-.666.667v5.06L5.16 7.533c-.17-.17-.416-.235-.647-.173-.23.062-.41.242-.473.473-.062.23.004.478.173.647l3.334 3.333c.125.127.295.198.473.198s.348-.07.473-.197l3.334-3.333c.198-.19.258-.484.152-.738-.107-.253-.358-.416-.633-.41h-.014z" fill="currentColor" fill-rule="evenodd"/>
</svg>
