<svg viewBox="0 0 25 30" version="1.1" xmlns="http://www.w3.org/2000/svg" xmlns:xlink="http://www.w3.org/1999/xlink">
  <path d="M22.2256131,24.6790351 C22.2256131,24.7575981 22.1573486,24.8265713 22.0795928,24.8265713 L13.8871934,24.8265713 L13.8871934,18.3362349 C15.1758231,17.7885807 16.0807113,16.5011065 16.0807113,15 C16.0807113,13.4988935 15.1758231,12.2114931 13.8871934,11.6637651 L13.8871934,5.17342874 L22.0795928,5.17342874 C22.1573486,5.17342874 22.2256131,5.24240189 22.2256131,5.32096489 L22.2256131,24.6790351 Z M2.92040722,24.8265713 C2.84265138,24.8265713 2.77438686,24.7575981 2.77438686,24.6790351 L2.77438686,5.32096489 C2.77438686,5.24240189 2.84265138,5.17342874 2.92040722,5.17342874 L11.1128066,5.17342874 L11.1128066,11.6637651 C9.82417688,12.2114931 8.91928871,13.4988935 8.91928871,15 C8.91928871,16.5011065 9.82417688,17.7885807 11.1128066,18.3362349 L11.1128066,24.8265713 L2.92040722,24.8265713 Z M22.0795928,2.37024196 L13.8871934,2.37024196 L13.8871934,1.40159339 C13.8871934,0.627544999 13.2660958,0 12.5,0 C11.7339042,0 11.1128066,0.627544999 11.1128066,1.40159339 L11.1128066,2.37024196 L2.92040722,2.37024196 C1.31009468,2.37024196 0,3.69393626 0,5.32096489 L0,24.6790351 C0,26.3060637 1.31009468,27.629758 2.92040722,27.629758 L11.1128066,27.629758 L11.1128066,28.5984066 C11.1128066,29.3725288 11.7339042,30 12.5,30 C13.2660958,30 13.8871934,29.3725288 13.8871934,28.5984066 L13.8871934,27.629758 L22.0795928,27.629758 C23.6899053,27.629758 25,26.3060637 25,24.6790351 L25,5.32096489 C25,3.69393626 23.6899053,2.37024196 22.0795928,2.37024196 Z" fill="currentColor"></path>
</svg>