<svg xmlns="http://www.w3.org/2000/svg" viewBox="0 0 215.37 215.37"><g id="Layer_2" data-name="Layer 2"><g id="icons"><path fill="currentColor" d="M190.17,0H79.72a25.24,25.24,0,0,0-25.2,25.2V66.43h14V25.2A11.22,11.22,0,0,1,79.72,14H190.17a11.21,11.21,0,0,1,11.2,11.2V135.65a11.21,11.21,0,0,1-11.2,11.2h-38.9v14h38.9a25.24,25.24,0,0,0,25.2-25.2V25.2A25.24,25.24,0,0,0,190.17,0Z"/><path fill="currentColor" d="M135.65,54.52H25.2A25.24,25.24,0,0,0,0,79.72V190.17a25.23,25.23,0,0,0,25.2,25.2H135.65a25.23,25.23,0,0,0,25.2-25.2V79.72A25.24,25.24,0,0,0,135.65,54.52ZM124.41,135a10,10,0,0,1-10,10h-24v24a10,10,0,0,1-20,0V145h-24a10,10,0,0,1-10-10h0a10,10,0,0,1,10-10h24V101a10,10,0,0,1,20,0v24h24a10,10,0,0,1,10,10Z"/></g></g></svg>
