<?xml version="1.0" encoding="UTF-8"?>
<svg viewBox="0 0 15 15" version="1.1" xmlns="http://www.w3.org/2000/svg" xmlns:xlink="http://www.w3.org/1999/xlink">
    <g id="Symbols" stroke="none" stroke-width="1" fill="none" fill-rule="evenodd">
        <g id="icon-edit" transform="translate(-1.000000, -1.000000)" fill="currentColor">
            <g id="edit" transform="translate(1.000000, 1.000000)">
                <path d="M9.7590926,0.348452025 C10.050478,0.348452025 10.2866926,0.588961407 10.2866926,0.885644754 C10.2866926,1.1823281 10.050478,1.42283748 9.7590926,1.42283748 L2.91461315,1.42283748 C1.88820414,1.42410603 1.0564459,2.27098715 1.0552,3.31605814 L1.0552,12.0316265 C1.05603059,13.0769971 1.88791023,13.9243452 2.91461315,13.9256145 L11.4753,13.9256145 C12.502003,13.9243452 13.3338826,13.0769971 13.3347132,12.0316265 L13.3347132,5.02663328 C13.3347132,4.72994992 13.5709278,4.48944055 13.8623132,4.48944055 C14.1536986,4.48944055 14.3899132,4.72994992 14.3899132,5.02663328 L14.3899132,12.0316265 C14.3882522,13.6700133 13.0844295,14.9978852 11.4753,15 L2.91461315,15 C1.30548367,14.9978852 0.00166098471,13.6700133 3.58379992e-12,12.0316265 L3.58379992e-12,3.31605814 C0.00166177005,1.6777959 1.30560559,0.350144009 2.91461315,0.348452025 L9.7590926,0.348452025 Z M12.5101498,0.264036025 C12.8567185,-0.0880120083 13.4177616,-0.0880120083 13.7643303,0.264036025 L13.7643303,0.264036025 L14.419308,0.930922427 C14.7651563,1.28405539 14.7651563,1.85554074 14.419308,2.2086737 L14.419308,2.2086737 L7.4693086,9.28426936 C7.44571652,9.30869813 7.41751475,9.32801517 7.38640002,9.34105831 L7.38640002,9.34105831 L4.68207316,10.4776046 C4.58333752,10.5191357 4.4697588,10.4961281 4.3941543,10.4192809 L4.3941543,10.4192809 L4.35286797,10.3632159 C4.31938075,10.3026575 4.30972662,10.2303128 4.32782744,10.1614283 C4.33122604,10.1482546 4.33576613,10.1354139 4.3413943,10.1230574 L4.3413943,10.1230574 L5.5021143,7.42097801 C5.51599606,7.3900038 5.53571415,7.36210516 5.5601503,7.33886427 L5.5601503,7.33886427 Z" id="Combined-Shape"></path>
            </g>
        </g>
    </g>
</svg>