<svg viewBox="0 0 12 12" version="1.1" xmlns="http://www.w3.org/2000/svg" xmlns:xlink="http://www.w3.org/1999/xlink">
   <path d="M1,0 C0.5,0 0,0.5 0,1 L0,5 L0.5,5 L1.8,3.3 C2.8,4.1 3.8,5 4.9,6 C3.8,7.1 2.8,8 1.8,8.7 L0.5,7 L0,7 L0,11 C0,11.5 0.5,12 1,12 L5,12 L5,11.5 L3.3,10.2 C4.1,9.2 5,8.1 6,7.1 C7.1,8.2 8,9.2 8.7,10.3 L7,11.5 L7,12 L11,12 C11.5,12 12,11.5 12,11 L12,7 L11.5,7 L10.2,8.7 C9.2,7.9 8.1,7 7,6 C8.1,5 9.2,4.1 10.2,3.3 L11.5,5 L12,5 L12,1 C12,0.5 11.5,0 11,0 L7,0 L7,0.5 L8.7,1.8 C7.9,2.8 7,3.9 6,4.9 C5,3.8 4.1,2.8 3.3,1.8 L5,0.5 L5,0 L1,0 Z" fill="currentColor"></path>
</svg>