<svg viewBox="0 0 12 16" xmlns="http://www.w3.org/2000/svg">
  <path d="M11.455 5.454c-.302 0-.546.244-.546.546v8.912H1.09V6c0-.302-.243-.546-.545-.546-.3 0-.545.244-.545.546v9.454c0 .3.244.546.545.546h10.91c.3 0 .545-.245.545-.546V6c0-.302-.244-.546-.545-.546zm-7.24-2.342l1.25-1.25v9.596c0 .3.245.545.546.545.302 0 .546-.244.546-.545V1.86l1.25 1.252c.216.2.55.195.76-.013.207-.21.212-.544.012-.76L6.396.16c-.213-.213-.558-.213-.77 0L3.443 2.34c-.2.216-.195.55.013.76.208.207.543.213.758.012z" fill="currentColor" fill-rule="evenodd"/>
</svg>
