<svg version="1.1" id="Layer_1" xmlns="http://www.w3.org/2000/svg" xmlns:xlink="http://www.w3.org/1999/xlink" x="0px" y="0px"
	 viewBox="0 0 18 18" xml:space="preserve" fill="currentColor">
	<path d="M9.1,7.5c0.7,0,1.2,0.5,1.2,1.2c0,0.7-0.5,1.2-1.2,1.2C8.5,9.9,8,9.4,8,8.7l0,0C8,8.1,8.5,7.5,9.1,7.5L9.1,7.5"/>
	<path d="M17.6,8.4c-1.4-2-2.8-3-4.2-3.8c-1.4-0.7-2.8-1-4.2-1c-1.4,0-2.8,0.3-4.2,1C3.4,5.4,2,6.4,0.6,8.4C0.5,8.6,0.5,8.8,0.6,9
		c1.4,2,2.8,3,4.2,3.7c1.4,0.7,2.8,1,4.2,1c1.4,0,2.8-0.3,4.2-1C14.7,12,16.2,11,17.6,9C17.7,8.8,17.7,8.6,17.6,8.4z M9.1,12.1
		c-2,0-3.4-1.6-3.4-3.4c0-2,1.6-3.4,3.4-3.4s3.4,1.6,3.4,3.4C12.6,10.5,11,12.1,9.1,12.1z"/>
</svg>
