<svg xmlns="http://www.w3.org/2000/svg" viewBox="0 0 400 400"><path fill="currentColor" d="M377.6 238.2L353 216.4c.7-6 1.1-11.5 1.1-16.8 0-5.4-.3-10.8-1.1-16.8l24.6-21.7c12.5-11.1 15.5-29.6 7.1-44l-20.3-34.7c-8.4-14.4-26-21-41.8-15.8l-31.3 10.2c-9.2-6.7-19.2-12.4-29.7-17l-6.7-31.9c-3.4-16.3-18-28.1-34.8-28.1h-40.5c-16.7 0-31.3 11.8-34.8 28.1l-6.7 31.9c-10.6 4.6-20.5 10.3-29.7 17L77.1 66.3c-15.9-5.2-33.4 1.5-41.8 15.8L15 116.8c-8.4 14.4-5.4 32.9 7.1 44l24.5 21.7c-.7 6-1.1 11.6-1.1 17s.3 10.9 1.1 16.9L22 238.2c-12.5 11.1-15.5 29.6-7.1 44L35.3 317c8.4 14.4 26 21 41.8 15.8l31.4-10.2c9.2 6.7 19.1 12.4 29.7 16.9l6.7 32c3.4 16.3 18 28.1 34.8 28.1h40.5c16.7 0 31.3-11.8 34.8-28.1l6.7-32c10.6-4.6 20.5-10.3 29.7-17l31.3 10.2c15.8 5.2 33.4-1.5 41.8-15.8l20.3-34.7c8.3-14.4 5.3-32.9-7.2-44zm-13.2 32.1L344.1 305c-2.8 4.8-8.8 7.1-14.2 5.3l-43.3-14.1-5 4c-10.3 8.2-22 14.9-34.6 19.8l-6 2.3-9.3 44.4c-1.1 5.4-6.1 9.4-11.7 9.4h-40.5c-5.7 0-10.6-4-11.7-9.4l-9.3-44.3-6-2.3c-12.6-4.8-24.2-11.5-34.6-19.7l-4.9-3.9-43.3 14.1c-5.4 1.8-11.3-.5-14.2-5.3l-20.3-34.7c-2.8-4.8-1.8-10.9 2.4-14.6l34.1-30.2-1-6.3c-1.2-7.5-1.7-13.8-1.7-19.8s.5-12.3 1.7-19.8l1-6.4-34.1-30.1c-4.2-3.7-5.2-9.7-2.4-14.6L55.6 94c2.8-4.8 8.8-7.1 14.2-5.3l43.2 14.1 5-4c10.3-8.2 22-14.9 34.6-19.7l6-2.3 9.3-44.2c1.1-5.4 6.1-9.4 11.7-9.4h40.5c5.7 0 10.6 3.9 11.7 9.4l9.3 44.3 6 2.3c12.6 4.9 24.3 11.5 34.6 19.8l5 4 43.2-14.1c5.4-1.8 11.4.5 14.2 5.3l20.3 34.7c2.8 4.8 1.8 10.9-2.4 14.6l-34.1 30.2 1 6.3c1.1 7.4 1.7 13.7 1.7 19.7s-.5 12.2-1.7 19.6l-1 6.3 34.2 30.2c4.1 3.7 5.1 9.7 2.3 14.5z"/><path fill="currentColor" d="M199.8 258.4c-32.7 0-59.2-26.4-59.2-58.8s26.6-58.8 59.2-58.8 59.2 26.4 59.2 58.8-26.5 58.8-59.2 58.8zm0-94.1c-19.7 0-35.7 15.8-35.7 35.3s16 35.3 35.7 35.3 35.7-15.8 35.7-35.3-16-35.3-35.7-35.3z"/></svg>
