<svg xmlns="http://www.w3.org/2000/svg" viewBox="0 0 204.71 204.71"><g id="Layer_2" data-name="Layer 2"><g id="icons_outlined" data-name="icons outlined"><path fill="currentColor" d="M184.82,162.91A102.17,102.17,0,0,0,195,58.89a3.87,3.87,0,0,0-.31-.65,102.86,102.86,0,0,0-23-31.12,4.67,4.67,0,0,0-.9-.82,102.11,102.11,0,0,0-44.6-23.49,1.15,1.15,0,0,0-.17-.06h-.11a102.43,102.43,0,0,0-59.28,3.7,4.49,4.49,0,0,0-.61.23A102.93,102.93,0,0,0,6.68,66a5,5,0,0,0-.26.68,102.33,102.33,0,0,0,177.76,97.11A4.25,4.25,0,0,0,184.82,162.91Zm-6-7.12c-6.78-1.81-12.45-8.66-12.21-15.38.18-4.9,2.64-9.65,5.26-14.68.66-1.27,1.31-2.53,1.93-3.8,4.89-10,5.55-18.39,2-25.06-3.34-6.2-9.69-9.42-14.86-11.54l-2.53-1c-3.95-1.56-7.69-3-10.43-5.48-2.48-2.22-4.23-6.22-2.72-8.81s6.28-3.54,10.2-4a276.21,276.21,0,0,1,32.39-1.17,93.2,93.2,0,0,1-9,90.89ZM128.4,12.7a93.1,93.1,0,0,1,31.93,16.54A57.8,57.8,0,0,1,150,33.51c-4.11,1.21-10.19,2.18-15.85,0C125.56,30.09,125.65,24.73,128.4,12.7ZM66.9,16c.75.71,1.52,1.44,2.32,2.18,9.89,9.22,16.63,16.43,13.23,25.14-2.46,6.34-6.72,7.22-14.66,8.35a67.18,67.18,0,0,0-8.25,1.54c-9.9,2.68-16.14,8.7-16.68,16.1-.42,5.62,2.73,11.35,8.21,14.94,4.38,2.86,9.35,4,13.73,5,3.15.72,6.35,1.61,9.74,2.55,6.43,1.79,13.08,3.63,19.64,4.34,1.8.2,3.47.26,5.08.32,5.76.21,8.42.46,11.13,4.27a12.43,12.43,0,0,1-1.08,15.16,30.41,30.41,0,0,1-4,3.28c-3,2.21-6.36,4.72-8.18,8.84A25,25,0,0,0,95.72,133c-.34,1.64-.67,3.19-1.32,3.83s-2.06.94-3.6,1.31a16.7,16.7,0,0,0-7.32,3.14c-3.6,3-4.26,7.37-4.79,10.86a23.24,23.24,0,0,1-.84,4,7.63,7.63,0,0,1-7.53,4.79c-5.21-.49-6.08-2.53-5.44-12.83a55,55,0,0,0,.14-7.24c-.5-6.91-3.4-13-8-16.59a32.61,32.61,0,0,0-4.16-2.7c-1.92-1.11-3.58-2.07-4.26-3.29-.79-1.4-.54-3.62-.25-6.19.35-3.13.75-6.66-.61-10.22-2.83-7.4-10.94-9.61-16.86-11.22l-.31-.09c-7.23-2-13.89-13.2-15.23-22.07A93.91,93.91,0,0,1,66.9,16Zm35.46,179.71A93.39,93.39,0,0,1,11,83.14c3.83,7.36,9.77,14.06,17.23,16.09l.31.09c4.51,1.23,9.63,2.62,10.82,5.75.58,1.52.34,3.7.08,6-.38,3.42-.86,7.66,1.33,11.59,1.89,3.39,4.93,5.14,7.62,6.69a24.61,24.61,0,0,1,3.06,2c2.61,2.07,4.29,5.78,4.6,10.18a47.15,47.15,0,0,1-.14,6c-.49,7.83-1.3,20.94,13.57,22.34a13.5,13.5,0,0,0,1.42.07,16.72,16.72,0,0,0,15.44-10.8,30.55,30.55,0,0,0,1.26-5.71c.36-2.4.68-4.48,1.69-5.33a9.93,9.93,0,0,1,3.59-1.26c2.42-.58,5.43-1.29,7.84-3.65,2.58-2.54,3.27-5.78,3.82-8.39a17,17,0,0,1,.86-3.16c.86-2,2.92-3.48,5.31-5.25a38.27,38.27,0,0,0,5.14-4.31,21.53,21.53,0,0,0,1.88-26.59c-5.4-7.57-12.16-7.82-18.13-8-1.46,0-3-.11-4.44-.27-5.84-.63-12.12-2.37-18.21-4.06-3.33-.93-6.78-1.88-10.13-2.65C63,79.6,59,78.7,56,76.72c-2.21-1.45-4.36-4.1-4.17-6.75.3-4,5.61-6.87,10.07-8.08a60.94,60.94,0,0,1,7.15-1.31c7.71-1.1,17.3-2.46,21.79-14C96.47,32.13,85.35,21,76.48,12.65a93.56,93.56,0,0,1,43.16-2c-2.47,10.68-5.23,24.77,11.23,31.24a29.3,29.3,0,0,0,10.72,1.95,39.25,39.25,0,0,0,11-1.66,72.62,72.62,0,0,0,15-6.56,94,94,0,0,1,15.77,20.3,260.49,260.49,0,0,0-28.8,1.24c-3.87.42-12.93,1.41-17,8.37C134.44,70.73,135,79.3,142,85.55c3.94,3.52,8.61,5.36,13.13,7.14l2.42,1c3.78,1.55,8.36,3.79,10.34,7.48,2.13,4,1.42,9.62-2.12,16.83-.59,1.2-1.21,2.41-1.84,3.61-3,5.69-6,11.58-6.26,18.51-.36,9.8,6.3,19.21,15.38,23.19A93.19,93.19,0,0,1,102.36,195.71Z"/></g></g></svg>
