<svg xmlns="http://www.w3.org/2000/svg" viewBox="0 0 20 20">
    <path fill="currentColor" fill-rule="nonzero" d="M10.94 0h7.52C19.307 0 20 .709 20 1.592v16.331c0 .884-.693 1.592-1.54 1.592l-7.458-.003c-.319.035-.402.134-.402.488H9.4c0-.354-.083-.453-.34-.485H1.54c-.847 0-1.54-.708-1.54-1.592V1.593C0 .708.693 0 1.54 0h7.52c.353 0 .68.123.94.331.26-.208.587-.331.94-.331zm0 18.252h7.52c.192 0 .34-.152.34-.329V1.593a.335.335 0 0 0-.34-.33h-7.52a.335.335 0 0 0-.34.33H9.4a.335.335 0 0 0-.34-.33H1.54a.335.335 0 0 0-.34.33v16.33c0 .177.148.33.34.33l7.582.003c.354.038.652.155.885.34.243-.186.555-.304.933-.344zM3 3h5.5a.5.5 0 0 1 0 1H3a.5.5 0 0 1 0-1zm0 4h4.5a.5.5 0 0 1 0 1H3a.5.5 0 0 1 0-1zm0 4h5.5a.5.5 0 1 1 0 1H3a.5.5 0 1 1 0-1zm0 4h2.25a.5.5 0 1 1 0 1H3a.5.5 0 1 1 0-1zm8.5-12h4a.5.5 0 1 1 0 1h-4a.5.5 0 1 1 0-1zm0 4H17a.5.5 0 1 1 0 1h-5.5a.5.5 0 1 1 0-1zm0 4h4a.5.5 0 1 1 0 1h-4a.5.5 0 1 1 0-1zm0 4h5a.5.5 0 1 1 0 1h-5a.5.5 0 1 1 0-1z"/>
</svg>
