<svg xmlns="http://www.w3.org/2000/svg" viewBox="0 0 24 24"><circle fill="currentColor" cx="11.992" cy="17.423" r=".974"/><path fill="currentColor" d="M12 15.142c-.455 0-.825-.37-.825-.825v-1.24c0-.886.575-1.652 1.43-1.903.9-.265 1.53-1.107 1.53-2.047 0-1.138-.997-2.135-2.135-2.135-1.177 0-2.134.958-2.134 2.134 0 .455-.37.825-.825.825-.454 0-.824-.37-.824-.824 0-2.087 1.697-3.784 3.784-3.784 2.052 0 3.785 1.733 3.785 3.785 0 1.667-1.116 3.16-2.714 3.63-.146.044-.244.172-.244.32v1.24c0 .456-.37.825-.826.825z"/><path fill="currentColor" d="M12 1.014c-6.074 0-11 4.923-11 10.994C1 18.08 5.926 23 12 23c6.075 0 11-4.92 11-10.992 0-6.07-4.925-10.994-11-10.994zm.015 20.16c-5.057 0-9.16-4.102-9.16-9.166 0-5.063 4.102-9.167 9.16-9.167 5.057 0 9.158 4.105 9.158 9.168 0 5.064-4.1 9.166-9.158 9.166z"/></svg>
