<svg xmlns="http://www.w3.org/2000/svg" viewBox="0 0 24 24"><path d="M12 0C5.4 0 0 5.4 0 12s5.4 12 12 12 12-5.4 12-12S18.6 0 12 0zm0 22C6.4 22 2 17.5 2 12S6.4 2 12 2s10 4.4 10 10-4.5 10-10 10z" fill="currentColor" fill-rule="evenodd"></path><path fill="currentColor" fill-rule="evenodd" d="M14.7 14.2c-1.6 0-2.7-.9-3.4-1.8-1.4-2.1-4.3-2.1-4.5.6 0 .4-.3.8-.8.8-.3 0-.8-.3-.8-.8 0-2.9 2.2-3.6 3.8-3.6 1.8 0 2.7.9 3.4 1.9 1.1 1.5 4.2 2.6 4.7-.9 0-.4.3-.8.8-.8.4 0 .8.3.8.8.1 3.5-2.9 3.8-4 3.8z"></path></svg>
