<svg viewBox="0 0 26 24" xmlns="http://www.w3.org/2000/svg">
  <path d="M2 22h22v2H0V0h2v22zm2.922-5.476c-.214.51-.8.75-1.31.535-.508-.215-.748-.8-.534-1.31.08-.19.225-.498.436-.89.35-.645.762-1.292 1.237-1.9 1.424-1.817 3.122-2.943 5.114-2.943 1.52 0 2.33.353 3.452 1.24l.1.082c.86.678 1.364.89 2.6.89 1.59 0 3.35-1.877 4.98-5.07.606-1.19 1.15-2.47 1.62-3.75.165-.45.31-.865.43-1.238.073-.22.12-.377.145-.456.157-.53.714-.832 1.243-.675.53.158.832.714.675 1.244-.028.096-.082.27-.16.51-.13.394-.28.833-.455 1.305-.496 1.35-1.07 2.702-1.717 3.97-1.95 3.824-4.143 6.16-6.76 6.16-1.737 0-2.655-.386-3.84-1.323l-.102-.08c-.798-.633-1.203-.81-2.21-.81-1.258 0-2.456.794-3.538 2.176-.4.512-.753 1.066-1.053 1.62-.178.33-.296.58-.35.71z" fill="currentColor" fillRule="nonzero"/>
</svg>
