<svg xmlns="http://www.w3.org/2000/svg" viewBox="0 0 24 24"><path fill="currentColor" fill-rule="evenodd" d="M1.5 3a1.5 1.5 0 1 1 0-3 1.5 1.5 0 0 1 0 3zm0 7a1.5 1.5 0 1 1 0-3 1.5 1.5 0 0 1 0 3zm0 7a1.5 1.5 0 1 1 0-3 1.5 1.5 0 0 1 0 3zm0 7a1.5 1.5 0 1 1 0-3 1.5 1.5 0 0 1 0 3zM6 1.5C6 .672 6.662 0 7.504 0h14.992C23.326 0 24 .666 24 1.5c0 .828-.662 1.5-1.504 1.5H7.504C6.674 3 6 2.334 6 1.5zm0 7C6 7.672 6.675 7 7.498 7h11.004C19.33 7 20 7.666 20 8.5c0 .828-.675 1.5-1.498 1.5H7.498A1.495 1.495 0 0 1 6 8.5zm0 7c0-.828.672-1.5 1.506-1.5h7.988a1.5 1.5 0 1 1 0 3H7.506A1.5 1.5 0 0 1 6 15.5zm0 7c0-.828.667-1.5 1.505-1.5h12.99a1.5 1.5 0 1 1 0 3H7.505A1.5 1.5 0 0 1 6 22.5z"/></svg>
