<svg xmlns="http://www.w3.org/2000/svg" viewBox="0 0 16 16"><path fill="currentColor" fill-rule="evenodd" d="M12.006 7.33h-2a.667.667 0 0 0 0 1.335h2a.667.667 0 0 0 0-1.334M8.01 14.67A6.665 6.665 0 0 1 1.35 8c0-3.684 2.983-6.67 6.66-6.67 3.68 0 6.66 2.986 6.66 6.67 0 3.686-2.98 6.672-6.66 6.672M8 0a8 8 0 1 0 0 16.002A8 8 0 0 0 8 0m.41 5.99c-.32-.182-.75-.033-.964.336L6.85 7.358a.657.657 0 0 0-.175-.027H4.01a.666.666 0 0 0 0 1.335h2.088l-.192.332c-.213.37-.128.817.19 1 .32.186.75.036.964-.333l1.54-2.67c.214-.37.128-.818-.19-1.003"/></svg>
