<svg xmlns="http://www.w3.org/2000/svg" viewBox="0 0 20 20">
    <path fill="currentColor" fill-rule="evenodd" d="M19.905 16.423a2.01 2.01 0 0 0-.248-.302l-1.707-1.707a2 2 0 0 0-2.829 0l-.707.707a2 2 0 0 0 0 2.829l1.707 1.707c.094.094.196.177.302.248a4.5 4.5 0 0 1-5.11-6.057l-5.161-5.16a4.5 4.5 0 0 1-6.05-5.142c.084.144.188.28.312.404l1.707 1.707a2 2 0 0 0 2.829 0l.707-.707a2 2 0 0 0 0-2.829L3.95.414a2.003 2.003 0 0 0-.405-.313 4.5 4.5 0 0 1 5.142 6.05l5.161 5.162a4.5 4.5 0 0 1 6.057 5.11z"/>
</svg>
