<svg height="24" viewBox="0 0 32 24" width="32" xmlns="http://www.w3.org/2000/svg" xmlns:xlink="http://www.w3.org/1999/xlink"><defs><path id="a" d="m31.9814756 12.7473805-.0616673-.0361614h-.1172406l-.1048448.0361614s-.0370489.0482039-.0617366.0602803c-.0246531.0120425-.0308163.1084841-.0308163.1084841s-.0061979.0602803-.0061979.0903866c0 .0301401-.0555041.0361614-.0555041.0361614l-.0801917-.0060213-.0740285-.0361614-.1480915-.132603-.1418937-.1687644-.1850366-.2772486-.2159567-.3435163-.1542548-.1989046-.1110427-.1386243-.1356958-.1446456-.0925183-.1446793-.0740631-.2290109-.0431775-.259151-.0246531-.2531635-.0061979-.4098179-.0184898-.1265817-.0370142-.0361614h-.0678652l-.0802264.0180638-.0184898.054259-.0123265.1446455.0184898.1928833-.0370142.1084842-.061702-.0120764-.0246877-.0602464-.0431775-.1084842-.055504-.1386581-.0555387-.1506668-.0431775-.0482039-.086355-.0241189-.0493754.0180638-.0246877.0843991-.0123265.1024629-.0369796.0180638-.0185591-.0482039.0123612-.0904204-.0678652-.28929112-.1234039-.30136747-.1171713-.26517225-.1665814-.30738873-.1665813-.34957138-.1048795-.26520608-.1295671-.18080695-.1357304-.14464556-.1542202-.09644165-.2035956-.11450543-.1233693-.07232278-.0555386-.06630152-.0308164-.16876443-.0308509-.054259-.0370143-.00602126h-.0925529l-.1172059-.03616139-.1419283-.0843653-.2097243-.18080695-.1665813-.21094708-.1295325-.21094708-.061702-.2772486-.0184898-.28932495-.0061979-.48819567-.024653-.259151-.0432122-.20492582-.0493407-.06028025-.1295672-.04218266-.0678652-.07834404-.0801571-.07837786-.0740631-.16873061-.0184898-.12658177-.0246877-.17478569-.0308509-.32545252-.0061979-.24710847-.0308164-.16876442-.0493407-.10848418-.1172406-.18686203-.1110427-.19284947-.0986816-.13260304-.0925529-.07232278-.1172406-.03014013s-.1233692.00602126-.1480223.00602126c-.0246877 0-.1110427.01207634-.1110427.01207634l-.1234039.03010631h-.1480569l-.0678652-.01806378-.0185244-.06630152-.0061633-.10246291v-.19890456l-.0123612-.23506595-.0431775-.21094708-.0678652-.19890456-.1110427-.2530959-.0925182-.21700217-.0678652-.18080695-.0123612-.12658178v-.17478569l.0246877-.07232278.0308856-.07834404-.0123612-.054259-.0493754-.00602126-.0370142-.00602126-.0986815.00602126-.1110774.01207635-.0308163-.01809761-.0123612-.05422517v-.15070065l-.0123265-.1386243-.030851-.19284947-.0739938-.1928833-.0925529-.12658178-.1049141-.06626769-.1356957-.00605509-.0678652.03616139-.0246877.04823774-.0370143.0843653-.0431775.11453926-.0986815.19887073-.0802264.19890456-.0987161.25312973-.0493408.28932495-.030851.31943125-.0123265.06626769-.0555387.02411887-.0801917.01207635-.030851.02411887-.0370142.06024643v.12052669l-.0123266.18686204-.0308509.24710847-.1172406.80160567-.0061633.40383038-.0246531.35559264-.0370488.26520607-.086355.259151-.1233693.28929112-.1295671.28330368-.0678652.26517225-.0432121.22298961-.0369796.12056051-.0370143.01806379-.1542202.00605508-.2899506.00602126h-.3640137l-.17271-.04218265-.1604181-.10249673-.0802263-.09640783-.0986816-.19288329-.0246877-.10246291-.0678652-.03612757-.1295325-.06028026-.1295671-.09644165-.1974324-.14464556-.1850711-.16876443-.1418937-.11453925-.2097589-.10848417-.2529363-.09038656-.2714262-.11450544-.2097935-.12658177-.2899506-.1928833-.5552135-.33147377-.2714608-.11450544-.2220854-.06028025-.1789079-.02411887-.1418591.02411887-.0123611-.04218265.0493407-.04221648.0986816-.07834404.1542894-.15668808.1850366-.24108721.1110427-.21094708.0617365-.29534621.0616673-.30136747.0370143-.04820391.0740284-.01204252h.1604181l.2714262.01204252.1295672-.01204252.0308163-.03014013.0246877-.03616139v-.05422517l.0370489-.1928833.0184898-.19890456.0246877-.18080695-.0061633-.10246291-.0431775-.054259-.0740631-.03616139-.086355-.02408504-.0925529.00602126-.0925529.03616139-.0493408.03616139-.0246531.07232278-.0370488.07232278-.0493408.01809761-.0678652.00598743-.0678306-.01204252-.0740631-.03014013-.024653-.07834404-.0185245-.09644165-.0184898-.03616139-.0678652-.00602126-.0863896-.00602126-.0801917.02411887-.0123266.04218265-.0431775.03616139-.0863896-.01207635-.1048794-.01204252-.1912345-.00602126-.1542202-.00602126-.104914-.04218265-.0801918-.07232278-.0369796-.09644165-.0308856-.06630152-.0431775-.00602126-.598391-.00602126-.1419283-.01809761-.1418936-.07232278-.178908-.07834404-.0925528-.03616139h-.117206l-.0555041-.03616139-.0123611-.04820391-.0431775-.07837787-.0493408-.09644165-.0493408-.03616139-.0432121.01809761.0123612.0843653.0061632.10246291-.0308509.07834404h-.0493754l-.0370143-.03616139-.0801917-.0843653-.1233692-.06630152-.1974324-.15066682-.1727446-.09042039-.0925183-.01806378-.0863896.01806378-.0678652.054259-.0616673.07232278-.0061979.07834404.0432121.03616139.0740285.00602126.1048794-.00602126.0678652.02411887.086355.07232278.0740285.09038656.0431775.08439913.0123612.15066682-.0370143.12052669-.0987161.12658178-.1542202.09042039-.2159222.03616139-.2467731.02411887-.1789079.01806378-.2529364.02411887-.2159567.03014013-.2590997.06028026-.1850711.10848417-.1233693.12052669-.0555386.12056052-.0246877.12654795.0061632.1386243.0555387.12052669.030851.08439913-.030851.04218265h-.0555387l-.086355-.00602126-.1295671.01204252-.055504.03014013-.0246877.06630152-.086355.10848417-.1295672.15672191-.086355.15668808-.0493754.13260304-.024653.20492582.024653.07232278.061702.02411887s.0740284.01806378.0987161.01806378.0431775.03616139.0431775.03616139l.0370143.07232278.0184898.10246291-.0123266.1386243-.0308509.02411887-.086355.03014013h-.148057l-.277624.0180976-.3023118.01806379-.2405752-.054259-.1418937-.07232278-.1357304-.17478569-.0740285-.15066682-.0863896-.16274317-.1233692-.14464556-.1542202-.1386243-.1480916-.0843653-.1233692-.03616139h-.148057l-.1048794.01806378-.1048794.03014013-.1110427.04823774-.11724063.05422517h-.00003463l-.34545464.18080695-.17274464.11450543-.1110427.09647547-.00616327.12654796v.10246291l-.04934077.03616139-.1357304-.01806379s-.09871616-.01207634-.12340386-.01207634-.06166731.03616139-.08635501.05425899c-.02468769.01806379-.01852442.07232279-.01852442.07232279l.00619789.12052669-.00619789.18682821-.06166731.03619521h-.11107733l-.24060983-.0180976s-.08015712.00602126-.10484481.03014013c-.0246877.02411886-.03701424.04820391-.03701424.04820391l-.03085096.0723566-.0678652.1205267-.10487944.11450543s-.09871616.09042038-.11720597.12056051c-.01852443.03014013-.00619789.07834404-.00619789.07834404l.06170193.02411887h.07402847l.0678652.02411887.01236116.09038656-.00616327.19890456-.0246877.1386243-.05553866.03014013h-.1357304l-.24060983-.01207635-.16038348.01207635-.05550404.06024644-.00619789.12658177.03085097.37971151-.01232654.22904469s-.01852443.0301063-.03701423.06024643c-.01852443.03014013-.04317751 0-.04317751 0l-.0678652-.04820391-.10487943-.09042039-.09871617-.09042038-.14189367-.18682822-.06170193-.05425899-.06170193.00605508-.07399384.07232278-.10491406.11450543-.12336924.16876443-.10487944.24710847-.03085096.24710847-.00616327.32548634-.01852443.30133364-.06166731.23506595-.12340386.26520608-.1542202.19284947-.27762407.32545251-.26529754.19890456-.24673847.14467939-.25293637.06630152-.31463831.06626769-.25293637.01809761-.19743233.00602126-.14805694.03616139-.1789079.09644165-.1357304.13859047-.07402847.108518-.1542202.14464556-.17274464.09644165-.19126906.05422517-.16654674.10848417s-.1172406.11453926-.14189367.12658178c-.0246877.01204252-.18507117.09644165-.18507117.09644165l-.21592214.04820391h-.28378734l-.24060983.06028026-.25293637.13260304-.21595676.16270934-.16038348.15070065-.25909964.30136747-.3331281.3073549-.12956713.2531297-.08019174.2109809-.03085097.1446456-.05553866.078344-.0431775-.0060212-.05553867-.0843653-.0431775-.1567219-.04934077-.1265818-.05553866-.0240851-.03085097.0060213-.0184898.0602803-.01232654.0903865-.01852443.1989046v.2772486l.00616327.6207987-.01848981.31341-.01852443.1566881-.08019173.1567219-.04934077.1145054.03081634.1084842.08638963.1989045.12336924.1868283.14805693.0964416.08638963.0120425.0678652.0482039.00616327.0361953-.01232654.4158729.05550404.0421826.0925529-.0060213s.06166731.0120426.12336924.048204c.06170193.0361613.0493754.0361613.06170193.0602802.01232654.0241189.01848981.1084842.01848981.1084842l.00619789.1928495-.00619789.132603-.03081634.054259-.08638963.0120425-.10487944-.0301063-.14189367-.1024967-.16654674-.1506668-.11107733-.1446456-.11720597-.0482377-.10487943.006055-.05550404.0542252.00616327.0723228.0246877.0663015.07399384.0783441.12956713.1506668.2282833.2350998.19739771.1385904.06170193.0723566.03085097.0783102v.0964755.1326031l.0678652.102429s.04934077.0301402.08019173.0421827c.03085097.0120763.10487944.030174.10487944.030174l.1110427.0060212.01852443.0421827-.0246877.0904204.00616327.1385904.01852443.1627432.05550404.1205267.086355.0964755.0925529.0783102.14805694.0964755.1357304.0602464.05553866.054259.0184898.1265818s-.01232653.1446117-.0184898.1687306c-.00619789.0241188.03085097.1024629.03085097.1024629l.0431775.0663015.10487943.1084842s.1357304.1506668.16038348.1747857c.02468769.0241188.09871616.1265817.09871616.1265817s.05553867.1446456.07402847.1747857c.0184898.0301063.03085097.1747519.03085097.1747519l.0431775.1266156.03701423.0843653.10487944.1084842.1357304.1205267.16654674.1567219.18510579.2049258.04317751.0904204v.0542251l.01232653.2652061-.00616327.31341-.00616326.1807731.0431775.1024968.0431775.0903865.00619789.1567219v.235066l-.0678652.0843653s-.086355.0482039-.1110427.0663015-.0925529.0301063-.0925529.0301063-.11720597.0603141-.14189366.0843991c-.0246877.0241189-.00616327.0723228-.00616327.0723228l-.00616327.1024629-.00619789.2049259.02468769.0723227.0925529.0964417.2035956.1024629.24057521.0180976.10487944.0663015.20975886.1566881.19123444.1325692.27762407.0603141.21592214.0059874.63543987-.0059874.23444657-.0060551.11720597-.0482039.12956713-.0904204.1357304-.1747857.11104271-.1627093.09871616-.0964755.16038347-.1145054.23441195-.1928495.43804216-.1928833.32080157-.1205267.24060984-.0301401.32076694-.0180638.2714608.024085s.37017697 0 .42568101-.0060212c.05553866-.0060213.38866677-.0301401.38866677-.0301401l.30844041-.0783441.1604181-.054259.03701423-.0542252.04321213-.0904203.08635501-.156722.086355-.1687306.1172406-.1446455.21592213-.1266156.30844041-.1747519.37017693-.1446455.3392914-.1205267.4195178-.0663016s.2714608-.0663015.3023117-.0663015c.0308164 0 .0740285-.0783778.0740285-.0783778l.1048794-.1145055.1048448-.054259.1727447-.0120425h.3269994l.234412-.0361614.3023117-.0904204.2961139-.132603.2899506-.1385905.512036-.1989045.3208362-.0843653.148057-.0361953.2282486-.0120425.1850712-.0060212.2097589.0482039.1789079.078344s.0432121.0482377.0678652.0723566c.0246877.0240851 0 .0723228 0 .0723228l-.0061633.1145054.0246877.0783441.0740285.0663015.1172059.0361614h.203561l.3331628-.0120425.2344465.0301063.2097589.0723566.2159221.0060212.1233693.0241189.0123265.0663015s-.0061633.1144716 0 .1385905c.0061979.0241189.0432121.0663015.0432121.0663015l.0801918.0180976.0863896-.0060212.1171713.0241188.0432122.0361614-.0061633.0903866-.0246877.0602802-.0493408.0241189s-.0555386.0120087-.0925529.0421827c-.0370142.0301401-.0740284.054259-.0740284.054259l-.0432122.0964078.0370489.0843653.0617019.0361952.1480223.0059874.1419283.0542929.1912345.1928494.0987161.1928495.0678652.2652061.0801918.31341.1234038.2712273.1542202.1687644.148057.1024629.1357304-.006055.0493407-.0421827v-.1084842l-.0123265-.1386243.0185244-.1024629.0616673-.0843653.061702-.078344.086355-.0602803.1480915-.1145054.2220855-.1989046.1295325-.1567219.308475-.3616139.1604181-.2170021.1110427-.204892.0431775-.0783779.0493408.0180976.0123265.1024629.0123612.1446456-.0184898.1989045.0123265.2350322-.0185244.2170021-.0678652.2531298-.0925529.1928833-.0987162.132603-.1665467.1747857-.1542202.1205267-.1357304.132603-.1048795.0964417-.0185244.0843653.030851.0482377.1172406.0059874.2282486-.0120425.1110774-.0180638.1171713-.0602802.0678652-.0843992.0555387-.0903865.0246877-.1325692.0246877-.1507007-.0123612-.1747857.030851-.0723227.0431775-.0180977.0801917-.0301401.086355.0241189.0432121.0482377.0185245.1024291.0061286.1687644.0185591.180807.0123265.1928833-.0370142.1265479-.0802264.0904204-.0925529.0602803-.0123265.0663015-.0061633.1386243.0061633.1205605.0246877.0421827s.0986815.0120425.1233692.0120425.1234039-.0060551.1604181-.0060551.1110427-.0361276.1110427-.0361276l.1048794-.0602802.1912691-.1145393.055504-.024085.0246531.024085-.0122919.0723566v.0904204l.0061633.0542252.0925182.0723228.1603835.0421826s.1172406.0542252.1419283.0723228.1233693.1205605.1233693.1205605l.0740284.2229896-.0123265.3194313-.0061633.3254525-.0123611.2591848.0555386.1687644.1973977.2229896s.1542549.0602803.1851058.0783441c.0308164.0180976.2035956.0060551.2035956.0060551l.1912345.0180637.1850711.0723228.1912345.108518.2406444.0964078.1171714.0060213s.2097588 0 .2406444.0120425c.0308164.0120764.1233693.0060551.1480223.0241189.0246877.0180638.1233693.0361952.148057.054259.0246877.0180976.1295671.1506668.1295671.1506668l.0925183.0542252.3269995.0180976h.4318442l.0678652-.0542252.1234039-.0843991.0678652-.126548-.0061979-.1627431.0061979-.2049258.0678306-.0602803.0370142.0180638.1048794.1567219.0370143.0964416-.0123266.1326031-.0308509.0663015h-.0925183l-.0185244.0241189.0740284.078344.117206.0904204.1110427.0843653.0678652.0180638.0246877-.0361276-.0061979-.132603-.0061286-.1567219.0370142-.0542252.0616673.0301063.0802264.0783779.055504.1506668v.132603c0 .0240851.0555387.0482039.0555387.0482039l.1912344.0361614.2097589.0723228h.117206l.0493753-.0301063.0061633-.0602803.0184898-.1687644.0432121-.0723228.0863551-.0241188.0987161-.0120764.1357304-.0783102.2714608-.1507006.2529018-.0723228.3269994-.0542252.4688585-.0180976.3578158-.0060213.2467731-.0783778.1542202-.1627094.0740285-.1446794.0678652-.2290108.0493408-.2772148-.0061633-.2230234.0061633-.2109809.0740631-.1205267.1480223-.1566881.2097935-.1808408.1912344-.2350321.0987162-.235066.1233692-.1687644.117206-.1566881.2159221-.2832698.1357304-.2712612.0802264-.2410872.086355-.2109133.0863896-.1567219.1048448-.1386243.1789079-.1627093.1851058-.132603.2776241-.1868283.2529018-.2109809.1110773-.2350659.0493408-.2410872.0370142-.3254525.0555387-.4098178.055504-.210981.0925529-.1988707.1357304-.2772824.1295325-.3796777.1049141-.3254525.0431775-.3254863.0246877-.3555927-.0246877-.1989045-.0308856-.3977753.0123611-.5002721-.024653-.5122807-.0246877-.2350659s.0369796-.1145055.0431775-.1446456c.0061632-.0301401.0493407-.0241189.0493407-.0241189l.0555387-.0060212.0801917-.0060213.117206-.0783779.0617019-.1627093.0185245-.1205605.0431775-.1205267.0370142-.0964417z"/><mask id="b" fill="currentColor"> <use fill="none" xlink:href="#a"/></mask></defs><g fill="none" fill-rule="evenodd" transform=""><use fill="currentColor" fill-rule="nonzero" xlink:href="#a"/><g mask="url(#b)"><g transform="translate(16 12)"><path d="m0 2h2v2h-2z" fill="currentColor"/><path d="m6 0h2v2h-2z" fill="currentColor"/><path d="m4 2h2v2h-2z" fill="currentColor"/><path d="m0 0h2v2h-2z" fill="currentColor"/><path d="m6 4h2v2h-2z" fill="currentColor"/><path d="m4 0h2v2h-2z" fill="currentColor"/><g fill="currentColor"><path d="m2 2h2v2h-2z"/><path d="m6 2h2v2h-2z"/><path d="m2 0h2v2h-2z"/><path d="m4 4h2v2h-2z"/></g></g><g transform="translate(22 4)"><g fill="currentColor"><path d="m0 2h2v2h-2z"/><path d="m6 0h2v2h-2z"/><path d="m4 2h2v2h-2z"/></g><path d="m0 0h2v2h-2z" fill="currentColor"/><path d="m6 4h2v2h-2z" fill="currentColor"/><path d="m4 0h2v2h-2z" fill="currentColor"/><path d="m2 2h2v2h-2z" fill="currentColor"/><path d="m6 2h2v2h-2z" fill="currentColor"/><path d="m2 0h2v2h-2z" fill="currentColor"/><path d="m4 4h2v2h-2z" fill="currentColor"/></g><g transform="translate(24 10)"><g fill="currentColor"><path d="m0 2h2v2h-2z"/><path d="m6 0h2v2h-2z"/><path d="m4 2h2v2h-2z"/></g><path d="m0 0h2v2h-2z" fill="currentColor"/><path d="m6 4h2v2h-2z" fill="currentColor"/><path d="m4 0h2v2h-2z" fill="currentColor"/><path d="m2 2h2v2h-2z" fill="currentColor"/><path d="m6 2h2v2h-2z" fill="currentColor"/><path d="m2 0h2v2h-2z" fill="currentColor"/><path d="m4 4h2v2h-2z" fill="currentColor"/></g><g transform="translate(24 18)"><g fill="currentColor"><path d="m0 2h2v2h-2z"/><path d="m6 0h2v2h-2z"/><path d="m4 2h2v2h-2z"/></g><path d="m0 0h2v2h-2z" fill="currentColor"/><path d="m6 4h2v2h-2z" fill="currentColor"/><path d="m4 0h2v2h-2z" fill="currentColor"/><path d="m2 2h2v2h-2z" fill="currentColor"/><path d="m6 2h2v2h-2z" fill="currentColor"/><path d="m2 0h2v2h-2z" fill="currentColor"/><path d="m4 4h2v2h-2z" fill="currentColor"/></g><g transform="translate(8 16)"><g fill="currentColor"><path d="m0 2h2v2h-2z"/><path d="m6 0h2v2h-2z"/><path d="m4 2h2v2h-2z"/></g><path d="m0 0h2v2h-2z" fill="currentColor"/><path d="m6 4h2v2h-2z" fill="currentColor"/><path d="m4 0h2v2h-2z" fill="currentColor"/><path d="m2 2h2v2h-2z" fill="currentColor"/><path d="m6 2h2v2h-2z" fill="currentColor"/><path d="m2 0h2v2h-2z" fill="currentColor"/><path d="m4 4h2v2h-2z" fill="currentColor"/></g><g transform="matrix(-1 0 0 -1 14 10)"><g fill="currentColor"><path d="m0 2h2v2h-2z"/><path d="m6 0h2v2h-2z"/><path d="m4 2h2v2h-2z"/></g><path d="m0 0h2v2h-2z" fill="currentColor"/><path d="m6 4h2v2h-2z" fill="currentColor"/><path d="m4 0h2v2h-2z" fill="currentColor"/><path d="m2 2h2v2h-2z" fill="currentColor"/><path d="m6 2h2v2h-2z" fill="currentColor"/><path d="m2 0h2v2h-2z" fill="currentColor"/><path d="m4 4h2v2h-2z" fill="currentColor"/></g><g transform="matrix(-1 0 0 -1 16 16)"><path d="m0 2h2v2h-2z" fill="currentColor"/><path d="m6 0h2v2h-2z" fill="currentColor"/><path d="m4 2h2v2h-2z" fill="currentColor"/><path d="m0 0h2v2h-2z" fill="currentColor"/><g fill="currentColor"><path d="m4 4h2v2h-2z"/><path d="m4 0h2v2h-2z"/><path d="m2 2h2v2h-2z"/></g><path d="m6 2h2v2h-2z" fill="currentColor"/><path d="m2 0h2v2h-2z" fill="currentColor"/><path d="m2 4h2v2h-2z" fill="currentColor"/></g><g transform="matrix(-1 0 0 -1 24 12)"><path d="m0 2h2v2h-2z" fill="currentColor"/><path d="m6 0h2v2h-2z" fill="currentColor"/><path d="m4 2h2v2h-2z" fill="currentColor"/><g fill="currentColor"><path d="m0 0h2v2h-2z"/><path d="m6 4h2v2h-2z"/><path d="m2 2h2v2h-2z"/></g><path d="m6 2h2v2h-2z" fill="currentColor"/><path d="m2 0h2v2h-2z" fill="currentColor"/><path d="m4 4h2v2h-2z" fill="currentColor"/></g><g transform="matrix(-1 0 0 -1 20 6)"><path d="m0 2h2v2h-2z" fill="currentColor"/><path d="m6 0h2v2h-2z" fill="currentColor"/><path d="m4 2h2v2h-2z" fill="currentColor"/><g fill="currentColor"><path d="m0 0h2v2h-2z"/><path d="m6 4h2v2h-2z"/><path d="m4 0h2v2h-2z"/></g><path d="m2 2h2v2h-2z" fill="currentColor"/><path d="m6 2h2v2h-2z" fill="currentColor"/><path d="m2 0h2v2h-2z" fill="currentColor"/><path d="m4 4h2v2h-2z" fill="currentColor"/></g><g transform="matrix(0 -1 1 0 1.975098 18.07251)"><path d="m0 2h2v2h-2z" fill="currentColor"/><path d="m6 0h2v2h-2z" fill="currentColor"/><path d="m0 0h2v2h-2z" fill="currentColor"/><path d="m6 4h2v2h-2z" fill="currentColor"/><path d="m4 0h2v2h-2z" fill="currentColor"/><g fill="currentColor"><path d="m2 2h2v2h-2z"/><path d="m2 0h2v2h-2z"/><path d="m4 4h2v2h-2z"/></g></g></g></g></svg>