<?xml version="1.0" encoding="UTF-8"?>
<svg width="14px" height="10px" viewBox="0 0 14 10" version="1.1" xmlns="http://www.w3.org/2000/svg" xmlns:xlink="http://www.w3.org/1999/xlink">
    <!-- Generator: Sketch 64 (93537) - https://sketch.com -->
    <desc>Created with Sketch.</desc>
    <g id="Symbols" stroke="none" stroke-width="1" fill="none" fill-rule="evenodd">
        <g id="widget" transform="translate(-458.000000, -15.000000)" fill="currentColor">
            <g id="icon-menu" transform="translate(458.000000, 13.000000)">
                <g id="Group" transform="translate(0.000000, 2.100000)">
                    <path d="M13.4354839,8.4 C13.7472575,8.4 14,8.71340068 14,9.1 C14,9.45438271 13.7876261,9.74725823 13.5120854,9.79360983 L13.4354839,9.8 L0.564516129,9.8 C0.25274248,9.8 0,9.48659932 0,9.1 C0,8.74561729 0.212373889,8.45274177 0.487914634,8.40639017 L0.564516129,8.4 L13.4354839,8.4 Z" id="Line-5"></path>
                    <path d="M13.4354839,4.2 C13.7472575,4.2 14,4.51340068 14,4.9 C14,5.25438271 13.7876261,5.54725823 13.5120854,5.59360983 L13.4354839,5.6 L0.564516129,5.6 C0.25274248,5.6 0,5.28659932 0,4.9 C0,4.54561729 0.212373889,4.25274177 0.487914634,4.20639017 L0.564516129,4.2 L13.4354839,4.2 Z" id="Line-5-Copy"></path>
                    <path d="M13.4354839,0 C13.7472575,0 14,0.313400675 14,0.7 C14,1.05438271 13.7876261,1.34725823 13.5120854,1.39360983 L13.4354839,1.4 L0.564516129,1.4 C0.25274248,1.4 0,1.08659932 0,0.7 C0,0.345617286 0.212373889,0.0527417698 0.487914634,0.00639017493 L0.564516129,0 L13.4354839,0 Z" id="Line-5-Copy-2"></path>
                </g>
            </g>
        </g>
    </g>
</svg>
