<svg xmlns="http://www.w3.org/2000/svg" width="19" height="20" viewBox="0 0 19 20"><path fill="currentColor" fill-rule="evenodd" d="M18.114 15.966a2.48 2.48 0 0 1 .275 2.63A2.48 2.48 0 0 1 16.143 20H2.5a2.48 2.48 0 0 1-2.244-1.403 2.478 2.478 0 0 1 .276-2.63l5.356-6.864c.24-.305.37-.688.37-1.075V1.25H5.47a.625.625 0 1 1 0-1.25h7.705a.625.625 0 1 1 0 1.25h-.787v6.83c0 .354.12.703.338.982l5.388 6.904zm-.848 2.083c.215-.44.163-.93-.138-1.315L11.74 9.832a2.866 2.866 0 0 1-.602-1.752V1.25h-3.63v6.778a3.01 3.01 0 0 1-.635 1.844l-5.356 6.863c-.3.384-.35.876-.138 1.314.213.438.633.7 1.12.7h13.644c.49 0 .908-.262 1.122-.7zm-7.943-.643H3.595a.386.386 0 0 1-.304-.623l4.35-5.574h3.365l4.35 5.573a.386.386 0 0 1-.305.623H9.323z"/></svg>
