<svg baseProfile="tiny" xmlns="http://www.w3.org/2000/svg" viewBox="0 0 400 400"><path fill="currentColor" d="M288.4 400H106.9c-37.7 0-68.4-30.7-68.4-68.4V68.4C38.5 30.7 69.2 0 106.9 0h181.5c37.7 0 68.4 30.7 68.4 68.4v263.2c0 37.7-30.7 68.4-68.4 68.4zM106.9 27.9c-22.3 0-40.5 18.2-40.5 40.5v263.2c0 22.3 18.2 40.5 40.5 40.5h181.5c22.3 0 40.5-18.2 40.5-40.5V68.4c0-22.3-18.2-40.5-40.5-40.5H106.9z"/><path fill="currentColor" fill-rule="evenodd" d="M175 295.4h45.4c7.5 0 13.6 6.1 13.6 13.6s-6.1 13.6-13.6 13.6H175c-7.5 0-13.6-6.1-13.6-13.6s6.1-13.6 13.6-13.6z"/></svg>
