<svg version="1.1" xmlns="http://www.w3.org/2000/svg" xmlns:xlink="http://www.w3.org/1999/xlink" x="0px" y="0px"
	 viewBox="0 0 34 40" style="enable-background:new 0 0 34 40;" xml:space="preserve">
  <path d="M2,12.4h18.7c1.1,0,2,0.9,2,2V38c0,1.1-0.9,2-2,2H2c-1.1,0-2-0.9-2-2V14.4C0,13.3,0.9,12.4,2,12.4z" fill="currentColor"/><path d="M24.6,34.8V13.1c0-0.9-0.1-1.2-0.3-1.5s-0.4-0.6-0.8-0.8s-0.6-0.3-1.5-0.3H4.3V8.9c0-0.9,0.1-1.2,0.3-1.5C4.8,7,5,6.8,5.4,6.6C5.7,6.4,6,6.3,6.9,6.3h18.9c0.9,0,1.2,0.1,1.5,0.3c0.3,0.2,0.6,0.4,0.8,0.8s0.3,0.6,0.3,1.5v23.3c0,0.9-0.1,1.2-0.3,1.5c-0.2,0.3-0.4,0.6-0.8,0.8c-0.3,0.2-0.6,0.3-1.5,0.3H24.6z" fill="currentColor"/><path d="M30.2,28.4V6.8c0-0.9-0.1-1.2-0.3-1.5s-0.4-0.6-0.8-0.8c-0.3-0.2-0.6-0.3-1.5-0.3H10V2.6c0-0.9,0.1-1.2,0.3-1.5s0.4-0.6,0.8-0.8S11.7,0,12.6,0h18.9c0.9,0,1.2,0.1,1.5,0.3c0.3,0.2,0.6,0.4,0.8,0.8C33.9,1.3,34,1.7,34,2.6v23.3c0,0.9-0.1,1.2-0.3,1.5c-0.2,0.3-0.4,0.6-0.8,0.8c-0.3,0.2-0.6,0.3-1.5,0.3H30.2z" fill="currentColor"/>
</svg>
