<svg xmlns="http://www.w3.org/2000/svg" fill="currentColor" x="0px" y="0px" viewBox="0 0 400 400">
  <path d="M257.5,189.3c-2.6,79.9-30.2,138.3-55,138.3c-9.6,0.1-10.4,24.3,0,24.4c99.4-0.4,179.6-83.3,174.6-183.8
    C372.7,79.9,300.6,7.5,212.4,2.6C111.6-3,27.7,77.5,27.7,177.1l0.2,1.8c0.5,5.9,5.5,10.3,11.3,10.3H257.5z M249.5,320
    c18.7-29,30.8-75.6,32.4-130.7h70.5C347.4,250.5,305.8,301.4,249.5,320z M352.4,165h-70.5c-1.6-55.1-13.7-101.7-32.4-130.7
    C305.8,52.8,347.4,103.8,352.4,165z M202.5,26.7c24.8,0,52.4,58.4,55,138.3h-110C150.1,85.1,177.7,26.7,202.5,26.7z M155.6,34.3
    c-18.7,29-30.8,75.6-32.4,130.7H52.7C57.6,103.8,99.3,52.8,155.6,34.3z"/>
  <path d="M146.7,284.7v-33.2c0-27-22-49-49-49s-49,22-49,49v33.2c-14.6,0.9-26.3,13.1-26.3,27.9V369c0,15.4,12.5,28,28,28H145
    c15.4,0,28-12.6,28-28v-56.5C173,297.7,161.3,285.5,146.7,284.7z M97.6,222.1c16.2,0,29.4,13.2,29.4,29.4v33.2H68.3v-33.2
    C68.3,235.2,81.4,222.1,97.6,222.1z M153.3,312.6V369c0,4.6-3.7,8.3-8.3,8.3H50.3c-4.6,0-8.3-3.7-8.3-8.3v-56.5
    c0-4.6,3.7-8.3,8.3-8.3H145C149.6,304.3,153.3,308,153.3,312.6z"/>
</svg>
