<svg xmlns="http://www.w3.org/2000/svg" viewBox="0 0 24 24"><path fill="currentColor" d="M12.56 9.238c-.44-.253-1.033-.05-1.325.462l-.814 1.42a.894.894 0 0 0-.24-.04H6.517a.92.92 0 0 0 0 1.84h2.87l-.263.456c-.292.506-.176 1.123.264 1.376.44.253 1.034.05 1.326-.462l2.118-3.67c.285-.513.17-1.13-.27-1.382zM12 1C5.928 1 1 5.925 1 12s4.928 11 11 11 11-4.92 11-11c0-6.075-4.923-11-11-11zm.017 20.173c-5.06 0-9.158-4.105-9.158-9.173s4.1-9.173 9.156-9.173S21.174 6.932 21.174 12s-4.103 9.173-9.157 9.173zM17.51 11.08h-2.75a.92.92 0 0 0 0 1.84h2.75a.92.92 0 0 0 0-1.84z"/></svg>
