<svg xmlns="http://www.w3.org/2000/svg" viewBox="0 0 32 32">
  <path d="M28.2 30.6h-9.5c-.8 0-1.4-.6-1.4-1.4s.6-1.4 1.4-1.4h9.6c.5 0 .9-.4.9-.9V5.1c0-.5-.4-.9-.9-.9H21c-.5 0-.9.4-.9.9v1.4c0 .8-.6 1.4-1.4 1.4-.8 0-1.4-.6-1.4-1.4V5.1c0-2 1.6-3.6 3.6-3.6h7.3c2 0 3.6 1.6 3.6 3.6v21.8c.1 2-1.5 3.7-3.6 3.7zm-4.5-17.2v9.1c0 2-1.6 3.6-3.6 3.6H3.8c-2 0-3.6-1.6-3.6-3.6v-9.1c0-2 1.6-3.6 3.6-3.6h16.4c1.9-.2 3.5 1.5 3.5 3.6zm-20.9 0v9.1c0 .4.4.9.9.9h16.4c.5 0 .9-.4.9-.9v-9.1c0-.5-.4-.9-.9-.9H3.8c-.6-.2-1 .2-1 .9zm6.8 14.4h4.6c.8 0 1.4.6 1.4 1.4s-.6 1.4-1.4 1.4H9.6c-.8 0-1.4-.6-1.4-1.4s.7-1.4 1.4-1.4z" fill="currentColor"/>
</svg>
