<svg viewBox="0 0 16 16" xmlns="http://www.w3.org/2000/svg">
  <path d="M8.153 10.093c1.624 0 3.316.353 5.075 1.06 1.76.707 2.64 1.632 2.64 2.774v1.94H.437v-1.94c0-1.142.88-2.067 2.64-2.774 1.76-.707 3.45-1.06 5.075-1.06zm0-1.94c-1.053 0-1.955-.376-2.707-1.128-.752-.752-1.128-1.654-1.128-2.707 0-1.052.376-1.962 1.128-2.73C6.198.823 7.1.44 8.153.44s1.955.384 2.707 1.15c.752.768 1.128 1.678 1.128 2.73 0 1.053-.376 1.955-1.128 2.707-.752.752-1.654 1.128-2.707 1.128z" fill="currentColor" fill-rule="evenodd" />
</svg>
