<svg viewBox="0 0 16 16" xmlns="http://www.w3.org/2000/svg">
  <path d="M4.16 6.672c.123.15.312.24.513.246h6.667c.368 0 .667-.282.667-.63 0-.347-.3-.628-.667-.628H5.953l2.04-1.924c.19-.154.273-.395.215-.625-.06-.23-.25-.408-.492-.464-.244-.055-.5.023-.663.203L4.027 5.703c-.26.245-.26.64 0 .887.04.033.085.06.133.082zM8 0C3.582 0 0 3.38 0 7.547s3.582 7.546 8 7.546 8-3.38 8-7.546C16 3.38 12.418 0 8 0zM1.333 7.547c0-3.474 2.985-6.29 6.667-6.29s6.667 2.816 6.667 6.29c0 3.468-2.977 6.28-6.654 6.288-3.695 0-6.68-2.815-6.68-6.288zm10.494.874c-.123-.15-.312-.24-.514-.245H4.647c-.37 0-.667.282-.667.63 0 .347.298.628.667.628h5.393L8 11.358c-.19.153-.273.395-.215.624.06.23.25.41.493.465.243.055.5-.023.662-.203l3.027-2.855c.258-.246.258-.642 0-.888-.043-.032-.09-.06-.14-.08z" fill="currentColor" fill-rule="evenodd"/>
</svg>
