<svg xmlns="http://www.w3.org/2000/svg" viewBox="0 0 40 40"><path fill="currentColor" d="M37.67.01a1.51 1.51 0 0 0-1.682 1.31l-.746 6.16a19.822 19.822 0 0 0-14.595-6.45A19.59 19.59 0 0 0 1 20.515a19.68 19.68 0 0 0 36.58 9.89 1.492 1.492 0 0 0-.535-2.053 1.52 1.52 0 0 0-2.07.53 16.653 16.653 0 0 1-30.952-8.367A16.575 16.575 0 0 1 20.647 4.027a16.774 16.774 0 0 1 12.366 5.476l-6.53-.78a1.5 1.5 0 1 0-.36 2.977l9.985 1.19a.797.797 0 0 0 .353-.018l.05-.008a1.49 1.49 0 0 0 .534-.187h.002a1.248 1.248 0 0 0 .743-1.095l1.2-9.904A1.5 1.5 0 0 0 37.67.01z"/></svg>
