<svg xmlns="http://www.w3.org/2000/svg" viewBox="0 0 32 32">
  <path d="M31 21.3l-6.4-6.4.2-.2c2-2 2-5.2 0-7.2l-.3-.3c-2-2-5.2-2-7.2 0l-.2.2L10.7 1C9.5-.3 7.4-.3 6.2 1L1 6.2C-.3 7.5-.3 9.5 1 10.7l6.4 6.4-2 2c-1 1-1 2.5 0 3.5l4.1 4.1c1 1 2.5 1 3.5 0l2-2 6.4 6.4c1.3 1.3 3.3 1.3 4.5 0l5.2-5.2c1.1-1.4 1.1-3.5-.1-4.6zM8.7 15.8L2.4 9.5c-.6-.6-.6-1.5 0-1.9l5.2-5.2c.6-.6 1.4-.6 1.8 0l6.4 6.4-7.1 7zm2.5 10.3L6 20.9 18.6 8.4C20 7 22.2 7 23.5 8.4l.3.3c1.4 1.4 1.4 3.6 0 4.9L11.2 26.1zm13.3 3.5c-.6.6-1.4.6-1.8 0l-6.4-6.4 7.1-7.1 6.4 6.4c.6.6.6 1.4 0 1.8l-5.3 5.3z" fill="currentColor"/>
</svg>
