<svg xmlns="http://www.w3.org/2000/svg" viewBox="0 0 32 32">
  <path d="M27.2 4.4c-1-1-2.5-1-3.4 0-.6.6-.8 1.3-.7 2.1l-2.2 2.2c-.6.6-.6 1.5 0 2.1.6.6 1.5.6 2.1 0l2.2-2.2c.8.1 1.5-.2 2.1-.7.8-1 .8-2.5-.1-3.5zM31.1 24.5L7.3.8C6.9.4 6.4.2 5.8.2S4.6.4 4.2 1c-5.1 6.5-5.5 15.8-.8 22.6-.1.2-.2.4-.2.6v5.9c0 .9.7 1.7 1.7 1.7s1.7-.7 1.7-1.7v-3c3.5 3.1 7.9 4.7 12.6 4.7 4.3 0 8.5-1.5 11.9-4.1.5-.3.7-.8.8-1.3-.1-.7-.4-1.4-.8-1.9zm-12 5.4c-4.6 0-8.9-1.7-12.1-5C.8 18.8.3 9 5.7 2.2l.2-.1c.1 0 .1 0 .2.1l23.7 23.7c.1.1.1.1.1.2v.1c0 .1-.1.1-.1.2-3.1 2.2-6.8 3.5-10.7 3.5z" fill="currentColor"/>
</svg>
