<svg id="Layer_1" data-name="Layer 1" xmlns="http://www.w3.org/2000/svg" viewBox="0 0 400 400"><path d="M388.55,84l-73-74.39A29.71,29.71,0,0,0,294.42.71H32.55A29.59,29.59,0,0,0,3,30.27V369.72a29.6,29.6,0,0,0,29.57,29.57h334.9A29.6,29.6,0,0,0,397,369.72V104.66A29.4,29.4,0,0,0,388.55,84ZM115.15,29.53h169.7V130.29a.74.74,0,0,1-.74.74H115.89a.74.74,0,0,1-.74-.74ZM309.67,370.47H90.91V233.34a.74.74,0,0,1,.74-.74H308.93a.74.74,0,0,1,.74.74Zm58.52-.75a.75.75,0,0,1-.74.75H338.5V233.34a29.61,29.61,0,0,0-29.57-29.57H91.65a29.61,29.61,0,0,0-29.57,29.57V370.47H32.55a.75.75,0,0,1-.74-.75V30.27a.74.74,0,0,1,.74-.74H86.33V130.29a29.6,29.6,0,0,0,29.56,29.57H284.11a29.6,29.6,0,0,0,29.56-29.57V48.83L368,104.14a.73.73,0,0,1,.21.52Z" fill="currentColor"/><path d="M241.27,127.55h12a24.11,24.11,0,0,0,24.08-24.09V58.62a24.11,24.11,0,0,0-24.08-24.09h-12a24.11,24.11,0,0,0-24.08,24.09v44.84A24.11,24.11,0,0,0,241.27,127.55ZM238,58.62a3.28,3.28,0,0,1,3.28-3.28h12a3.28,3.28,0,0,1,3.28,3.28v44.84a3.28,3.28,0,0,1-3.28,3.28h-12a3.28,3.28,0,0,1-3.28-3.28Z" fill="currentColor"/></svg>
