<svg id="Layer_1" data-name="Layer 1" xmlns="http://www.w3.org/2000/svg" viewBox="0 0 276 265"><path d="M219.25,186.33v35.92a.45.45,0,0,1-.44.45H201.42v-9.94L183.05,240h35.76a17.77,17.77,0,0,0,17.73-17.75V160.69Z" fill="currentColor"/><path d="M106.43,222.7H52.78V140.37a.44.44,0,0,1,.44-.44H154.94l11.67-17.31H53.22a17.77,17.77,0,0,0-17.75,17.75V222.7H17.74a.45.45,0,0,1-.44-.45V18.46a.45.45,0,0,1,.44-.45H50V78.5A17.78,17.78,0,0,0,67.77,96.26h101A17.78,17.78,0,0,0,186.51,78.5V29.6l25.4,25.86L217,48a19.11,19.11,0,0,1,6.11-5.77L187.64,6.05A17.84,17.84,0,0,0,175,.71H17.74A17.76,17.76,0,0,0,0,18.46V222.25A17.77,17.77,0,0,0,17.75,240H105.4ZM67.33,18H169.21V78.5a.45.45,0,0,1-.44.45h-101a.45.45,0,0,1-.44-.45Z" fill="currentColor"/><path d="M143.05,76.86h7.2A14.48,14.48,0,0,0,164.71,62.4V35.48A14.48,14.48,0,0,0,150.25,21h-7.2a14.48,14.48,0,0,0-14.46,14.47V62.4A14.47,14.47,0,0,0,143.05,76.86Zm-2-41.38a2,2,0,0,1,2-2h7.21a2,2,0,0,1,2,2V62.4a2,2,0,0,1-2,2h-7.21a2,2,0,0,1-2-2Z" fill="currentColor"/><path d="M274.84,79.74a9.17,9.17,0,0,0-3.9-5.93L237.12,51A9.14,9.14,0,0,0,232,49.43a9.31,9.31,0,0,0-7.72,4.11L119.47,208.91c-.24.36-.5.71-.76,1.07a16.45,16.45,0,0,0-2.63,4.67,17.28,17.28,0,0,0-.59,5.7v.05c0,.67,0,1.3,0,1.9l-1.66,27.94a13.76,13.76,0,0,0,1.39,6.88,13.37,13.37,0,0,0,7.86,6.85,13.61,13.61,0,0,0,4.28.7,13.78,13.78,0,0,0,6.24-1.52L156,251.7l1.75-.89.05,0c.78-.4,1.58-.81,2.36-1.19l.62-.29a18.28,18.28,0,0,0,4.06-2.39,12,12,0,0,0,1.78-1.84,26.8,26.8,0,0,0,1.84-2.74c.3-.49.57-.92.84-1.33L273.4,86.68A9.32,9.32,0,0,0,274.84,79.74ZM232,51.43h0Zm6.77,58.78-79,117.12-23.35-15.74,79-117.13ZM148.44,238l-18.82,9.62,1.27-21.45ZM257,83.25l-9.36,13.87L224.25,81.38l9.36-13.88Zm-24-31.75.23,0Zm-1.44,0h0Z" fill="currentColor"/></svg>
