<?xml version="1.0" encoding="UTF-8"?>
<svg viewBox="0 0 20 20" version="1.1" xmlns="http://www.w3.org/2000/svg" xmlns:xlink="http://www.w3.org/1999/xlink">
    <g id="Symbols" stroke="none" stroke-width="1" fill="none" fill-rule="evenodd">
        <g id="icon-save" fill="currentColor">
            <path d="M15.4034476,-6.18299577e-06 C15.5891295,-0.00138668971 15.7680544,0.0695978455 15.9022744,0.197912758 L15.9022744,0.197912758 L19.7786387,3.90188078 C19.9200882,4.03672313 19.9999999,4.22364568 19.9999999,4.41906938 L19.9999999,4.41906938 L19.9999999,18.5473969 C19.9994368,19.3494216 19.3494077,19.9994507 18.547383,20.0000134 L18.547383,20.0000134 L1.45261674,20.0000134 C0.650358808,20.0000134 -1.05866953e-07,19.3496548 -1.05866953e-07,18.5473969 L-1.05866953e-07,18.5473969 L-1.05866953e-07,1.45263065 C-0.000270636625,1.06728982 0.152685455,0.697653724 0.425162634,0.425176544 C0.697639813,0.152699365 1.06727591,-0.000256726573 1.45261674,-6.18299577e-06 L1.45261674,-6.18299577e-06 Z M17.2610421,9.96125012 L2.82158537,9.96125012 C2.30214589,9.96125012 1.88105644,10.382339 1.88105644,10.9017785 L1.88105644,10.9017785 L1.88105644,16.9529871 C1.88078626,17.2026074 1.97975782,17.4420966 2.15617046,17.6187006 C2.3325831,17.7953046 2.57196489,17.8945355 2.82158537,17.8945355 L2.82158537,17.8945355 L17.2610421,17.8945355 C17.5106626,17.8945355 17.7500444,17.7953046 17.926457,17.6187006 C18.1028696,17.4420966 18.2018412,17.2026074 18.201571,16.9529871 L18.201571,16.9529871 L18.201571,10.9017785 C18.201571,10.382339 17.7804816,9.96125012 17.2610421,9.96125012 L17.2610421,9.96125012 Z M15.6727529,14.5343398 C16.0445859,14.5343398 16.3460161,14.83577 16.3460161,15.2076031 C16.3460161,15.5794361 16.0445859,15.8808663 15.6727529,15.8808663 L15.6727529,15.8808663 L4.27828224,15.8808663 C3.90644921,15.8808663 3.60501898,15.5794361 3.60501898,15.2076031 C3.60501898,14.83577 3.90644921,14.5343398 4.27828224,14.5343398 L4.27828224,14.5343398 Z M15.6727529,11.9279949 C16.0445859,11.9279949 16.3460161,12.2294251 16.3460161,12.6012582 C16.3460161,12.9730912 16.0445859,13.2745214 15.6727529,13.2745214 L15.6727529,13.2745214 L4.27828224,13.2745214 C3.90644923,13.2745214 3.60501902,12.9730912 3.60501902,12.6012582 C3.60501902,12.2294252 3.90644923,11.9279949 4.27828224,11.9279949 L4.27828224,11.9279949 Z M13.503009,1.77600053 L6.44190554,1.77600053 C6.16965302,1.77573 5.90847335,1.88376188 5.71596166,2.07627358 C5.52344996,2.26878528 5.41541808,2.52996494 5.4156886,2.80221746 L5.4156886,2.80221746 L5.4156886,7.23555402 C5.41849784,7.80015964 5.87729321,8.25621865 6.44190554,8.2556504 L6.44190554,8.2556504 L13.503009,8.2556504 C14.067391,8.2556504 14.5258593,7.799926 14.5292254,7.23555402 L14.5292254,7.23555402 L14.5292254,2.80221746 C14.5292254,2.23545378 14.0697727,1.77600053 13.503009,1.77600053 L13.503009,1.77600053 Z M12.2197284,2.8664835 C12.6140968,2.8664835 12.9337955,3.18618222 12.9337955,3.58055059 L12.9337955,3.58055059 L12.9337955,6.45620079 C12.9337955,6.85056915 12.6140968,7.17026788 12.2197284,7.17026788 C12.0303461,7.17026788 11.8487203,7.09503603 11.7148067,6.96112247 C11.5808932,6.82720891 11.5056613,6.64558316 11.5056613,6.45620079 L11.5056613,6.45620079 L11.5056613,3.58055059 C11.5056613,3.18618222 11.8253601,2.8664835 12.2197284,2.8664835 Z" id="Combined-Shape"></path>
        </g>
    </g>
</svg>
