<svg xmlns="http://www.w3.org/2000/svg" viewBox="0 0 400 400"><path fill="currentColor" d="M273 305.4c-2.5 0-5.1-.7-7.4-2.2l-84.5-53.6v-79.7c0-7.6 6.2-13.8 13.8-13.8 7.6 0 13.8 6.2 13.8 13.8v64.5l71.7 45.5c6.5 4.1 8.4 12.6 4.3 19.1-2.6 4.1-7.1 6.4-11.7 6.4z"/><path fill="currentColor" d="M330.7 59.2H304V13.8C304 6.2 297.8 0 290.2 0c-7.6 0-13.8 6.2-13.8 13.8v45.4H123.7V13.8c0-7.6-6.2-13.8-13.8-13.8C102.2 0 96 6.2 96 13.8v45.4H69.3c-37.4 0-67.9 30.5-67.9 67.9v205c0 37.4 30.5 67.9 67.9 67.9h261.3c37.4 0 67.9-30.5 67.9-67.9v-205c.1-37.4-30.4-67.9-67.8-67.9zm40.2 272.9c0 22.2-18 40.2-40.2 40.2H69.3c-22.2 0-40.2-18-40.2-40.2v-205c0-22.2 18-40.2 40.2-40.2H96v15.6c0 7.6 6.3 13.8 13.9 13.7 7.6-.1 13.8-6.3 13.7-13.9V86.9h152.6v15.6c0 7.6 6.3 13.8 13.9 13.7 7.6-.1 13.8-6.3 13.7-13.9V86.9h26.7c22.2 0 40.2 18 40.2 40.2v205z"/></svg>
