<svg xmlns="http://www.w3.org/2000/svg" viewBox="0 0 400 400"><path fill="currentColor" d="M388.1 93.7H168c-6.6 0-11.9-5.3-11.9-11.9 0-6.6 5.3-11.9 11.9-11.9h220.1c6.6 0 11.9 5.3 11.9 11.9 0 6.5-5.3 11.9-11.9 11.9zM106.4 47.7c-14.6 0-27 9.2-31.8 22.2H11.9C5.3 69.9 0 75.2 0 81.8c0 6.6 5.3 11.9 11.9 11.9h62.7c4.8 12.9 17.2 22.2 31.8 22.2 18.8 0 34.1-15.3 34.1-34.1s-15.3-34.1-34.1-34.1zm0 48.7c-8.1 0-14.6-6.5-14.6-14.6s6.6-14.6 14.6-14.6c8.1 0 14.6 6.6 14.6 14.6s-6.6 14.6-14.6 14.6zM388.1 330.7H225.4c-6.6 0-11.9-5.3-11.9-11.9 0-6.6 5.3-11.9 11.9-11.9h162.7c6.6 0 11.9 5.3 11.9 11.9 0 6.5-5.3 11.9-11.9 11.9zM164 284.2c-14.8 0-27.3 9.5-32 22.7H11.9c-6.6 0-11.9 5.3-11.9 11.9 0 6.6 5.3 11.9 11.9 11.9h120.4c5 12.6 17.2 21.6 31.6 21.6 18.8 0 34.1-15.3 34.1-34.1.1-18.8-15.2-34-34-34zm0 48.6c-8.1 0-14.6-6.6-14.6-14.6s6.6-14.6 14.6-14.6c8.1 0 14.6 6.5 14.6 14.6s-6.6 14.6-14.6 14.6zM388.1 213.1h-33.4c-6.6 0-11.9-5.3-11.9-11.9s5.3-11.9 11.9-11.9h33.4c6.6 0 11.9 5.3 11.9 11.9s-5.3 11.9-11.9 11.9zM293.6 165.9c-15 0-27.7 9.8-32.2 23.4H11.9c-6.6 0-11.9 5.3-11.9 11.9s5.3 11.9 11.9 11.9h250.3c5.1 12.3 17.3 21 31.4 21 18.8 0 34.1-15.3 34.1-34.1s-15.3-34.1-34.1-34.1zm0 48.7c-8.1 0-14.6-6.6-14.6-14.6s6.6-14.6 14.6-14.6c8.1 0 14.6 6.6 14.6 14.6s-6.5 14.6-14.6 14.6z"/></svg>
