<?xml version="1.0" encoding="UTF-8"?>
<svg viewBox="0 0 20 20" version="1.1" xmlns="http://www.w3.org/2000/svg" xmlns:xlink="http://www.w3.org/1999/xlink">
    <g id="icon-share" stroke="none" stroke-width="1" fill="none" fill-rule="evenodd">
        <path d="M14.1886909,13.1967931 C13.8432948,13.1805969 13.4973669,13.2150608 13.1623768,13.2990422 C12.2088552,13.5443968 11.193053,13.3418825 10.4133585,12.7509872 L10.1826206,12.5669389 C9.39262098,11.945779 8.93891346,11.0027973 8.95271418,10.0107125 L8.95271418,9.98003776 C8.93891346,8.98795292 9.39262098,8.04497127 10.1826206,7.42381133 L10.4133585,7.24998794 C11.1926699,6.65829866 12.2087078,6.45535948 13.1623768,6.7009105 C13.4972779,6.78538067 13.8432814,6.81985212 14.1886909,6.80315956 C16.0382586,6.70843215 17.4870806,5.2099801 17.4828497,3.39615786 C17.4786189,1.58233562 16.0228215,0.0903817286 14.1728311,0.00393091597 C12.3228408,-0.0825198966 10.7286027,1.26690458 10.5480427,3.07209146 C10.5364554,3.19820559 10.5315765,3.32482477 10.5334258,3.45143546 C10.5457648,4.43163756 10.0905776,5.36139007 9.30247534,5.96573978 L9.07278144,6.14467563 C8.29349823,6.73644924 7.27725682,6.93905107 6.32376318,6.69273058 C5.30128712,6.44198772 4.2178663,6.65876626 3.37775772,7.28218829 C2.53764914,7.90561032 2.0314594,8.86843911 2.00134174,9.9002835 C1.97106164,10.9686035 2.45472252,11.9888602 3.30754899,12.6556579 C4.16037547,13.3224555 5.2834012,13.5584155 6.34046819,13.2929072 C7.32410823,13.0579312 8.3633853,13.2846977 9.15213024,13.9064016 L9.30247534,14.023988 C10.0904487,14.6284391 10.5456034,15.5581251 10.5334258,16.5382923 C10.5315765,16.664903 10.5364554,16.7915222 10.5480427,16.9176363 C10.7231518,18.7248031 12.3155155,20.0794093 14.1671599,19.9963794 C16.0188044,19.9133495 17.4781059,18.421903 17.483871,16.6066264 C17.489602,14.7913497 16.0397739,13.2910682 14.1886909,13.1967931 Z" id="Path" fill="currentColor"></path>
    </g>
</svg>
