<svg viewBox="0 0 25 31" version="1.1" xmlns="http://www.w3.org/2000/svg" xmlns:xlink="http://www.w3.org/1999/xlink">
  <path d="M8.56245168,19.0084109 C7.65558466,19.9291588 6.39445589,20.5 5,20.5 C2.23857625,20.5 0,18.2614237 0,15.5 C0,12.7385763 2.23857625,10.5 5,10.5 C6.3717483,10.5 7.61447638,11.0524012 8.51786803,11.9468875 L15.5371364,7.25690217 C15.1935898,6.57890538 15,5.81206034 15,5 C15,2.23857625 17.2385763,0 20,0 C22.7614237,0 25,2.23857625 25,5 C25,7.76142375 22.7614237,10 20,10 C18.7754157,10 17.6536534,9.55976641 16.7843421,8.82892817 L9.63008636,13.6091065 C9.86855837,14.1924303 10,14.8308653 10,15.5 C10,16.1467975 9.87718755,16.7649105 9.6536099,17.332292 L16.9223357,22.0591625 C17.770892,21.3955296 18.8392556,21 20,21 C22.7614237,21 25,23.2385763 25,26 C25,28.7614237 22.7614237,31 20,31 C17.2385763,31 15,28.7614237 15,26 C15,25.1282052 15.2231179,24.3085223 15.6153662,23.5949388 L8.56245168,19.0084109 Z" id="Combined-Shape" fill="currentColor" fill-rule="nonzero"></path>
</svg>
