<svg viewBox="0 0 14 16" xmlns="http://www.w3.org/2000/svg">
  <path d="M1.524 8.38C.682 8.38 0 9.064 0 9.906v4.57C0 15.32.682 16 1.524 16c.84 0 1.524-.682 1.524-1.524v-4.57c0-.843-.683-1.525-1.524-1.525zM12.19 0c-.84 0-1.523.682-1.523 1.524v12.952c0 .842.682 1.524 1.523 1.524.842 0 1.524-.682 1.524-1.524V1.524C13.714.682 13.032 0 12.19 0zM6.857 3.81c-.84 0-1.524.682-1.524 1.523v9.143c0 .842.683 1.524 1.524 1.524.842 0 1.524-.682 1.524-1.524V5.333c0-.84-.68-1.523-1.523-1.523z" fill="currentColor" fill-rule="evenodd"/>
</svg>
