<?xml version="1.0" encoding="UTF-8"?>
<svg viewBox="0 0 40 29" version="1.1" xmlns="http://www.w3.org/2000/svg" xmlns:xlink="http://www.w3.org/1999/xlink">
    <g id="Symbols" stroke="none" stroke-width="1" fill="none" fill-rule="evenodd">
        <g id="icon-list" transform="translate(0.000000, -6.000000)" fill="currentColor" fill-rule="nonzero">
            <path d="M37.4492535,27.6313248 C38.6948471,27.6314303 39.6486202,28.3903749 39.8664566,29.5695834 C39.9115226,29.8141216 39.899702,30.0704805 39.9014962,30.3215623 C39.9058234,30.9550187 39.9030793,31.5886863 39.9029738,32.2222483 C39.9027627,33.6197153 38.894636,34.6368129 37.4912587,34.6397681 C35.0785938,34.644834 32.6659289,34.6412456 30.2533695,34.6413512 L24.3431848,34.6412456 C19.9779078,34.6411401 15.6125252,34.6424863 11.2472482,34.6401902 C10.0937917,34.639557 9.10708986,33.9782377 8.90677324,32.9164963 C8.68629831,31.7482641 8.6927363,30.5411929 8.9020239,29.3719053 C9.08608722,28.342776 10.0580133,27.658871 11.1271426,27.6318525 C11.231206,27.629214 11.3353748,27.6310082 11.4395437,27.6310082 C20.1094118,27.6310082 28.7793854,27.6306915 37.4492535,27.6313248 Z M37.4223827,16.8256045 C38.9203247,16.82571 39.9024883,17.8053406 39.9029104,19.2984277 C39.903016,20.0273987 39.90576,20.7564752 39.9022772,21.4854462 C39.8959447,22.7875042 38.8746255,23.8175834 37.5702455,23.8180055 C28.7615912,23.8210662 19.9528313,23.8208551 11.1442825,23.8183222 C9.83937482,23.8179 8.81742232,22.7958419 8.80507403,21.4899844 C8.79779171,20.7176361 8.79863604,19.9451823 8.80486295,19.172834 C8.81562812,17.8378472 9.83736955,16.8269765 11.1786888,16.8263433 L17.7656941,16.8252219 L17.7656941,16.8252219 L37.4223827,16.8256045 L37.4223827,16.8256045 Z M37.4604091,6.00489735 C38.6941822,6.0055306 39.6384566,6.76194221 39.8661083,7.92658601 C39.8941822,8.07001608 39.9008313,8.21956754 39.9014645,8.36626938 C39.9048418,9.12130896 39.9045252,9.87634854 39.9026255,10.6313881 C39.8991426,11.9690134 38.8947099,12.9887496 37.55814,13.0140794 L37.4539711,13.0142905 C28.7233115,13.0142905 19.9926519,13.0146071 11.2619922,13.0138683 C10.0165041,13.0138683 9.06051466,12.2496467 8.84141176,11.0778261 C8.81291572,10.9255306 8.8061611,10.7674303 8.80542232,10.6119686 C8.80162284,9.89154643 8.80260426,9.17122981 8.80362812,8.45091318 C8.80605556,7.01502928 9.80552786,6.00648046 11.2423616,6.00542506 C15.6163986,6.00204775 19.9904355,6.00415857 24.3644724,6.00415857 C28.7297495,6.00415857 33.0951321,6.00278653 37.4604091,6.00489735 Z M5.25171255,27.6360847 C6.25012944,27.6524435 6.99018221,28.4301744 6.99461493,29.4339739 C6.99968089,30.5707549 7.00031414,31.7075359 6.99493155,32.8443169 C6.98997113,33.8582483 6.23398168,34.6280636 5.22057799,34.63809 C4.07524817,34.6492773 2.92960174,34.6489607 1.78427192,34.63809 C0.757464532,34.6283802 0.00527455851,33.8543433 0.0018972498,32.8261638 L0.00158062711,31.1340266 L0.00158062711,31.1340266 C0.00158062711,30.5700161 -0.000213568138,30.0059 0.0018972498,29.4418894 C0.005802263,28.4267971 0.747121524,27.6505438 1.76348036,27.6354514 C2.92601334,27.6181427 4.08928511,27.6169818 5.25171255,27.6360847 Z M5.190921,6.00612163 C6.23725345,6.01372057 6.98965451,6.77730896 6.99567034,7.82343033 C6.9989421,8.39609524 6.99619804,8.96886569 6.99598696,9.54163614 C6.99577588,10.0969923 6.9989421,10.6523485 6.99514263,11.2078103 C6.98807139,12.2347232 6.23419276,13.0016889 5.20337482,13.0113987 C4.06669936,13.0221638 2.92970728,13.0232193 1.79303181,13.0113987 C0.749443424,13.000528 0.00348036325,12.2284963 0.00189724979,11.1810029 C0.000314136338,10.0615306 -0.000108027251,8.9420583 0.00200279069,7.82269155 C0.00400806774,6.78279709 0.76189725,6.01414273 1.80675213,6.00622717 C2.93477324,5.99778389 4.06289989,5.99810052 5.190921,6.00612163 Z M3.50236163,23.819747 C2.92969672,23.819747 2.35692627,23.8227021 1.78436691,23.8191137 C0.773285113,23.8127813 0.00536954532,23.0462377 0.0025199411,22.0376889 C-0.000751826711,20.8923591 -0.000962908506,19.7470293 0.002625482,18.6015939 C0.00579170891,17.6060266 0.770435508,16.8327285 1.76410305,16.8270293 C2.91808722,16.8204857 4.07217693,16.8212245 5.2261611,16.8268182 C6.22278379,16.8317786 6.98774422,17.5948393 6.99418221,18.5945227 C7.00167561,19.7485068 7.00209778,20.9025966 6.99407667,22.0565807 C6.98711097,23.0543644 6.21940648,23.8116203 5.22035635,23.8190082 C4.64779699,23.8232298 4.07502654,23.819747 3.50236163,23.819747" id="Combined-Shape"></path>
        </g>
    </g>
</svg>