<svg xmlns="http://www.w3.org/2000/svg" viewBox="0 0 400 400"><path fill="currentColor" d="M200.1 49.8l31 104c1.8 6.1 7.3 10.2 13.7 10.3h112.8l-91.7 71.5c-4.7 3.7-6.6 9.8-4.9 15.5l31.5 104.3-83.9-63.5c-5.1-3.8-12.1-3.8-17.2 0l-83.8 63.5 31.5-104.3c1.7-5.7-.2-11.9-4.9-15.5L42.5 164h112.9c6.3-.1 11.9-4.2 13.7-10.3l31-103.9m0-36.8c-6.7.1-12.6 4.5-14.4 11l-35.3 118.5H21.6c-7.9 0-14.4 6.5-14.4 14.4 0 4.5 2.1 8.7 5.7 11.4l104.4 81.3-35.4 117.3c-2.5 8.2 2 16.9 10.2 19.4 1.5.5 3 .7 4.5.7 3.3 0 6.5-1.1 9.1-3.2l94.3-71.5 94.2 71.5c2.6 2 5.8 3.1 9.1 3.2 8.6-.1 15.5-7.2 15.4-15.8 0-1.5-.2-3-.7-4.4l-35.4-117.2L387 168.3c6.3-4.9 7.4-13.9 2.5-20.2-2.7-3.5-6.8-5.5-11.2-5.6H250L214.8 24.1c-1.8-6.5-7.7-10.9-14.4-11l-.3-.1z"/></svg>
