<svg viewBox="0 0 16 16" xmlns="http://www.w3.org/2000/svg">
  <path d="M7.798 0c-.27.003-.508.184-.58.445l-1.43 4.79H.58c-.248.002-.47.16-.55.397-.08.237 0 .497.2.65l4.22 3.286-1.43 4.745c-.06.19-.026.397.092.557.117.16.304.256.503.257.134 0 .264-.045.37-.128l3.813-2.892 3.81 2.89c.107.083.237.128.37.13.2-.003.386-.1.504-.26.117-.16.152-.368.093-.558l-1.43-4.742 4.22-3.287c.196-.15.274-.41.194-.645-.08-.235-.3-.394-.547-.396H9.817L8.392.447c-.074-.26-.31-.442-.582-.445L7.798 0z" fill="currentColor" fill-rule="evenodd"/>
</svg>
