<svg xmlns="http://www.w3.org/2000/svg" viewBox="0 0 18 18">
  <path fill="currentColor" d="M2,1 C1.44771525,1 1,1.44771525 1,2 L1,13 C1,13.5522847 1.44771525,14 2,14 L16,14 C16.5522847,14 17,13.5522847 17,13 L17,2 C17,1.44771525 16.5522847,1 16,1 L2,1 Z M2,-7.10542736e-14 L16,-7.10542736e-14 C17.1045695,-7.10542736e-14 18,0.8954305 18,2 L18,13 C18,14.1045695 17.1045695,15 16,15 L2,15 C0.8954305,15 0,14.1045695 0,13 L0,2 C0,0.8954305 0.8954305,-7.10542736e-14 2,-7.10542736e-14 Z M5.5,16 L12.5,16 C12.7761424,16 13,16.2238576 13,16.5 C13,16.7761424 12.7761424,17 12.5,17 L5.5,17 C5.22385763,17 5,16.7761424 5,16.5 C5,16.2238576 5.22385763,16 5.5,16 Z M5.91141694,7.78417383 C5.81806418,7.91934233 5.66427191,8.00003285 5.5,8.00003285 L3.5,8.00003285 C3.22385763,8.00003285 3,7.77617522 3,7.50003285 C3,7.22389047 3.22385763,7.00003285 3.5,7.00003285 L5.23766392,7.00003285 L7.16050293,4.21589187 C7.37904874,3.89945231 7.85810194,3.93789755 8.02338553,4.28514041 L10.5077663,9.50455425 L12.0885978,7.21587056 C12.1819523,7.08071443 12.3357372,7.00003285 12.5,7.00003285 L14.5,7.00003285 C14.7761424,7.00003285 15,7.22389047 15,7.50003285 C15,7.77617522 14.7761424,8.00003285 14.5,8.00003285 L12.7623196,8.00003285 L10.8392528,10.7841951 C10.6206972,11.1006139 10.1416636,11.0621578 9.97638495,10.7149253 L7.49202642,5.4955581 L5.91141694,7.78417383 Z"/>
</svg>
