<svg xmlns="http://www.w3.org/2000/svg"><path fill="currentColor" d="M21 15v-1.25h.393c.112 0 .357-.322.357-.86V2.11c0-.538-.245-.86-.357-.86H4.607c-.104 0-.323.278-.354.75h-1.25c.042-1.114.744-2 1.604-2h16.786C22.281 0 23 .944 23 2.11v10.78c0 1.166-.72 2.11-1.607 2.11H21zm-7.283-5H12l2.5 3 2.5-3h-1.774A5.25 5.25 0 1 0 10 15.75a.75.75 0 0 0 0-1.5A3.75 3.75 0 1 1 13.717 10zm4.676-7C19.281 3 20 3.944 20 5.11v10.78c0 1.166-.72 2.11-1.607 2.11H1.607C.72 18 0 17.056 0 15.89V5.11C0 3.943.72 3 1.607 3h16.786z"/></svg>