<svg xmlns="http://www.w3.org/2000/svg" viewBox="0 0 128.55 157.04"><defs><style>.cls-1{fill:none;stroke:#545465;stroke-linecap:round;stroke-linejoin:round;stroke-width:4px;}.cls-2{fill:#545465;}</style></defs><g id="Layer_2" data-name="Layer 2"><g id="Layer_1-2" data-name="Layer 1"><polyline class="cls-1" points="22.16 110.15 8.95 138.4 32.98 133.38 44.53 155.04 58.01 126.24"/><polyline class="cls-1" points="106.39 110.15 119.61 138.4 95.57 133.38 84.02 155.04 70.55 126.24"/><circle class="cls-1" cx="64.28" cy="64.28" r="62.28"/></g><g id="Layer_2-2" data-name="Layer 2"><path class="cls-2" d="M99,52.19a55,55,0,0,0-69.51,0,4.94,4.94,0,0,0-.57,7,2.57,2.57,0,0,0,.28.29h0a5,5,0,0,0,3.48,1.44A5.21,5.21,0,0,0,36,59.72a45,45,0,0,1,56.62,0,5.21,5.21,0,0,0,3.27,1.17,4.93,4.93,0,0,0,3.49-1.44h0a4.94,4.94,0,0,0,0-7C99.24,52.37,99.13,52.28,99,52.19ZM84.52,66.08a35,35,0,0,0-40.48,0A4.93,4.93,0,0,0,43,73a2.93,2.93,0,0,0,.42.5A4.92,4.92,0,0,0,47,75a4.64,4.64,0,0,0,2.73-.86,25,25,0,0,1,29.05,0,4.59,4.59,0,0,0,2.73.86A4.94,4.94,0,0,0,85,66.5c-.17-.17-.35-.31-.53-.46ZM64.28,79.44a14.81,14.81,0,0,0-8.36,2.48,2.49,2.49,0,0,0-.51,3.47,2.91,2.91,0,0,0,.24.27l8.63,8.58,8.63-8.58a2.47,2.47,0,0,0,0-3.5,2.91,2.91,0,0,0-.27-.24,14.89,14.89,0,0,0-8.4-2.5Z"/></g></g></svg>
