<svg xmlns="http://www.w3.org/2000/svg" viewBox="0 0 127.55 156.04">
  <g id="Layer_1-2" data-name="Layer 1">
    <path stroke="currentColor" stroke-width="1" fill="currentColor" d="M107.69,110a63.78,63.78,0,1,0-87.83,0L7.09,137.26a1.49,1.49,0,0,0,.18,1.57,1.52,1.52,0,0,0,1.48.54l22.94-4.8,11,20.68A1.49,1.49,0,0,0,44,156h0a1.49,1.49,0,0,0,1.32-.86l13-27.87c1.76.15,3.54.24,5.35.24s3.58-.09,5.35-.24l13,27.87a1.49,1.49,0,0,0,1.32.86h0a1.49,1.49,0,0,0,1.32-.79l11-20.68,22.94,4.8a1.52,1.52,0,0,0,1.48-.54,1.49,1.49,0,0,0,.19-1.57ZM44,151.19l-10.15-19a1.48,1.48,0,0,0-1.32-.8,1.15,1.15,0,0,0-.31,0l-21.1,4.41,11.11-23.76A63.56,63.56,0,0,0,55.27,127ZM3,63.78a60.78,60.78,0,1,1,60.78,60.77A60.84,60.84,0,0,1,3,63.78Zm92.38,67.63a1.5,1.5,0,0,0-1.63.76l-10.14,19L72.28,127a63.56,63.56,0,0,0,33.09-14.91l11.11,23.76Z"/>
    <path stroke="currentColor" stroke-width="1" fill="currentColor" d="M43.11,65.85a5.92,5.92,0,0,0-5.91,5.91V89.47a5.91,5.91,0,1,0,11.81,0V71.76A5.91,5.91,0,0,0,43.11,65.85ZM84.44,33.38a5.91,5.91,0,0,0-5.9,5.91V89.47a5.91,5.91,0,1,0,11.81,0V39.27A5.9,5.9,0,0,0,84.44,33.38ZM63.77,48.14A5.91,5.91,0,0,0,57.86,54V89.47a5.91,5.91,0,1,0,11.81,0V54A5.89,5.89,0,0,0,63.77,48.14Z"/>
  </g>
</svg>
