<?xml version="1.0" encoding="UTF-8"?>
<svg viewBox="0 0 14 14" version="1.1" xmlns="http://www.w3.org/2000/svg" xmlns:xlink="http://www.w3.org/1999/xlink">
    <g id="icon-trash" stroke="none" stroke-width="1" fill="none" fill-rule="evenodd">
        <path d="M12.5089952,2 L0.487499605,2 C0.218413801,2 0,2.2236136 0,2.49910555 C0,2.7763864 0.218413801,3 0.487499605,3 L12.5151108,3 C12.7859439,2.99731664 13.0017368,2.77280859 13,2.49642218 C12.9982422,2.22093023 12.778081,1.99910555 12.5089952,2.00089445 L12.5089952,2 Z M5.56294058,0.999104745 L7.43605237,0.999104745 C7.74823766,0.999104745 8,0.775290958 8,0.499552372 C8,0.223813787 7.74823766,0 7.43605237,0 L5.56294058,0 C5.36153072,0 5.17623364,0.0948970457 5.0755287,0.250671441 C4.97482377,0.404655327 4.97482377,0.595344673 5.0755287,0.749328559 C5.17623364,0.904207699 5.36153072,1 5.56294058,1 L5.56294058,0.999104745 Z M1.16246757,4.12099998 C1.01843942,4.24978931 0.962910498,4.44984207 1.02538054,4.63272291 L2.07869485,11.9393708 C2.25395802,13.1182224 3.27256674,13.9939898 4.47685032,14 L8.54347647,14 C9.74776005,13.9939898 10.7672364,13.1182224 10.9416319,11.9393708 L11.9958139,4.63272291 C12.0305195,4.37085128 11.8457123,4.12872734 11.5793469,4.09352493 C11.3129816,4.05574672 1.308231,3.99392785 1.16246757,4.12099998 Z" id="Shape-Copy" fill="currentColor" fill-rule="nonzero"></path>
    </g>
</svg>