<svg viewBox="0 0 15 16" xmlns="http://www.w3.org/2000/svg">
  <path d="M14.318 2.233H.558c-.308 0-.558.25-.558.558 0 .31.25.56.558.56h13.767c.31-.003.557-.254.555-.563-.002-.308-.254-.556-.562-.554zM6.504 1.116h1.86c.31 0 .56-.25.56-.558 0-.308-.25-.558-.56-.558h-1.86c-.2 0-.384.106-.484.28-.1.172-.1.385 0 .557.1.173.284.28.484.28zm6.78 3.346c-.304-.043-.586.168-.63.473l-1.216 8.51c-.114.828-.82 1.448-1.658 1.453H5.085c-.837-.005-1.544-.625-1.658-1.454l-1.214-8.51c.008-.223-.118-.43-.32-.527-.204-.095-.444-.06-.612.088-.166.15-.23.383-.158.596l1.214 8.51c.202 1.373 1.376 2.393 2.764 2.4h4.687c1.388-.007 2.563-1.027 2.764-2.4l1.215-8.51c.04-.305-.173-.587-.48-.628z" fill="currentColor" fill-rule="evenodd"/>
</svg>
