<svg viewBox="0 0 16 16" xmlns="http://www.w3.org/2000/svg">
  <path d="M8 0C3.582 0 0 3.582 0 8s3.582 8 8 8 8-3.582 8-8-3.582-8-8-8zm0 14.667c-3.682 0-6.667-2.985-6.667-6.667S4.318 1.333 8 1.333 14.667 4.318 14.667 8c0 3.677-2.977 6.66-6.654 6.667H8zm.493-10.48c-.125-.127-.295-.198-.473-.198s-.348.07-.473.197L4.213 7.52c-.26.26-.26.685 0 .947.262.26.686.26.947 0l2.2-2.2v5.066c0 .37.298.667.667.667.368 0 .666-.298.666-.667v-5.06l2.2 2.2c.266.225.66.207.905-.04.245-.25.257-.643.03-.906l-3.335-3.34z" fill="currentColor" fill-rule="evenodd"/>
</svg>
