<svg xmlns="http://www.w3.org/2000/svg" viewBox="0 0 32 32">
  <path d="M16 21.2c-1.3 0-2.5.1-3.7.2 1.2-.2 2.4-.2 3.7-.2zM30.9 31c.6 0 1-.5 1-1v-.7c0-2.8-1.7-5.3-4.4-6.3-2.4-.9-6.3-1.8-11.5-1.8s-9.2 1-11.5 1.8C1.9 24 .1 26.5.1 29.3v.7c0 .6.5 1 1 1 .6 0 1-.5 1-1v-.7c0-2 1.2-3.7 3-4.4 2.2-.8 5.9-1.7 10.9-1.7s8.7 1 10.9 1.7c1.8.6 3 2.4 3 4.4v.7c0 .6.5 1 1 1z" fill="currentColor"/><path d="M26.8 25c-.6-.2-1.2-.4-1.9-.6.8.3 1.4.4 1.9.6zM16 1c-4.7 0-8.5 3.8-8.5 8.5S11.3 18 16 18s8.5-3.8 8.5-8.5S20.7 1 16 1zm0 14.9c-3.6 0-6.4-2.9-6.4-6.4s2.9-6.4 6.4-6.4 6.4 2.9 6.4 6.4-2.8 6.4-6.4 6.4z" fill="currentColor"/>
</svg>
