<svg viewBox="0 0 27 25" xmlns="http://www.w3.org/2000/svg"><path fill="currentColor" d="M17 18.793c-.813 0-1.563.064-2.313.127.75-.127 1.5-.127 2.313-.127zM26.313 25c.375 0 .625-.317.625-.633v-.444c0-1.773-1.063-3.356-2.75-3.99-1.5-.57-3.938-1.14-7.188-1.14-3.25 0-5.75.634-7.188 1.14-1.624.634-2.75 2.217-2.75 3.99v.444c0 .38.313.633.625.633.375 0 .625-.317.625-.633v-.444c0-1.266.75-2.343 1.876-2.786 1.374-.507 3.687-1.077 6.812-1.077 3.125 0 5.438.633 6.813 1.077 1.125.38 1.875 1.52 1.875 2.786v.444c0 .38.312.633.625.633z"/><path fill="currentColor" d="M23.75 21.2c-.375-.127-.75-.253-1.188-.38.5.19.875.253 1.188.38zM17 6c-2.938 0-5.313 2.407-5.313 5.383 0 2.977 2.376 5.384 5.313 5.384 2.938 0 5.313-2.407 5.313-5.384C22.313 8.407 19.938 6 17 6zm0 9.437c-2.25 0-4-1.837-4-4.054 0-2.216 1.813-4.053 4-4.053 2.188 0 4 1.837 4 4.053 0 2.217-1.75 4.054-4 4.054z"/><path fill="currentColor" d="M8 10.1c-.65 0-1.25.05-1.85.1.6-.1 1.2-.1 1.85-.1zm4.5.9c0-.642-1.834-.9-4.45-.9s-4.63.5-5.786.9C.956 11.5.05 12.75.05 14.15v.35c0 .3.252.5.503.5.302 0 .503-.25.503-.5v-.35c0-1 .604-1.85 1.51-2.2 1.107-.4 2.968-.85 5.484-.85s3.343.5 4.45.85V11z"/><path fill="currentColor" d="M13.4 12c-.3-.1-.6-.2-.95-.3.4.15.7.2.95.3zM8 0C5.65 0 3.75 1.9 3.75 4.25S5.65 8.5 8 8.5s4.25-1.9 4.25-4.25S10.35 0 8 0zm0 7.45c-1.8 0-3.2-1.45-3.2-3.2 0-1.75 1.45-3.2 3.2-3.2 1.75 0 3.2 1.45 3.2 3.2 0 1.75-1.4 3.2-3.2 3.2z"/></svg>
