<svg xmlns="http://www.w3.org/2000/svg" xmlns:xlink="http://www.w3.org/1999/xlink" viewBox="0 0 41.89 52.95"><defs><linearGradient x1="-4.46" y1="7.56" x2="26.65" y2="42.89" gradientUnits="userSpaceOnUse"><stop offset="0" stop-color="#1cbfff"/><stop offset="1" stop-color="#bf71ff"/></linearGradient></defs><g data-name="Layer 2"><g><path d="M6.62,53A6.61,6.61,0,0,1,0,46.34V6.62A6.62,6.62,0,0,1,10.38,1.18L39.05,21a6.62,6.62,0,0,1,0,10.87L10.38,51.77A6.54,6.54,0,0,1,6.62,53Zm0-50.62a4.35,4.35,0,0,0-2,.5A4.22,4.22,0,0,0,2.34,6.62V46.34a4.21,4.21,0,0,0,2.29,3.78,4.22,4.22,0,0,0,4.42-.27L37.71,30a4.28,4.28,0,0,0,0-7L9.05,3.11A4.2,4.2,0,0,0,6.62,2.33Zm4.59,26v4.36a1.46,1.46,0,1,1-2.91,0V28.3a1.46,1.46,0,1,1,2.91,0Zm5.09-4.37v8.73a1.46,1.46,0,1,1-2.91,0V23.93a1.46,1.46,0,1,1,2.91,0Zm5.1-3.64V32.66a1.46,1.46,0,1,1-2.91,0V20.29a1.46,1.46,0,1,1,2.91,0Z"/></g></g></svg>