<svg xmlns="http://www.w3.org/2000/svg" xmlns:xlink="http://www.w3.org/1999/xlink" viewBox="0 0 41.89 52.95"><defs><linearGradient  x1="-4.46" y1="7.56" x2="26.65" y2="42.89" gradientUnits="userSpaceOnUse"><stop offset="0" stop-color="#1cbfff"/><stop offset="1" stop-color="#bf71ff"/></linearGradient></defs><g data-name="Layer 2"><g><path d="M18.62,30.16a.6.6,0,0,1,0,.86l-2.1,2.09L14.42,31s0-.05-.06-.07a.6.6,0,0,1,.12-.84,3.64,3.64,0,0,1,2-.61h0a3.57,3.57,0,0,1,2,.61Zm2.95-3.81a1.21,1.21,0,0,1,0,1.7,1.23,1.23,0,0,1-.87.36,1.13,1.13,0,0,1-.66-.21,6.1,6.1,0,0,0-7.08,0,1.13,1.13,0,0,1-.67.21,1.22,1.22,0,0,1-.86-.36.63.63,0,0,1-.1-.12,1.19,1.19,0,0,1,.25-1.68,8.5,8.5,0,0,1,9.85,0Zm3.49-3.42a1.19,1.19,0,0,1,0,1.7,1.17,1.17,0,0,1-.85.35,1.29,1.29,0,0,1-.79-.28,11,11,0,0,0-13.8,0,1.25,1.25,0,0,1-.79.28A1.21,1.21,0,0,1,8,24.63a.23.23,0,0,1-.07-.07,1.2,1.2,0,0,1,.14-1.7,13.39,13.39,0,0,1,16.93,0ZM6.62,53A6.61,6.61,0,0,1,0,46.34V6.62A6.62,6.62,0,0,1,10.38,1.18L39.05,21a6.62,6.62,0,0,1,0,10.87L10.38,51.77A6.54,6.54,0,0,1,6.62,53Zm0-50.62a4.35,4.35,0,0,0-2,.5A4.22,4.22,0,0,0,2.34,6.62V46.34a4.21,4.21,0,0,0,2.29,3.78,4.22,4.22,0,0,0,4.42-.27L37.71,30a4.28,4.28,0,0,0,0-7L9.05,3.11A4.2,4.2,0,0,0,6.62,2.33Z"/></g></g></svg>