<svg xmlns="http://www.w3.org/2000/svg" xmlns:xlink="http://www.w3.org/1999/xlink" viewBox="0 0 41.89 52.95">
    <defs>
        <linearGradient id="linear-gradient" x1="-4.46" y1="7.56" x2="26.65" y2="42.89" gradientUnits="userSpaceOnUse">
            <stop offset="0" stop-color="#1cbfff"/>
            <stop offset="1" stop-color="#bf71ff"/>
        </linearGradient>
    </defs>

    <g id="Layer_2" data-name="Layer 2">
        <g>
            <path d="M6.62,53A6.61,6.61,0,0,1,0,46.34V6.62A6.62,6.62,0,0,1,10.38,1.18L39.05,21a6.62,6.62,0,0,1,0,10.87L10.38,51.77A6.54,6.54,0,0,1,6.62,53Zm0-50.62a4.35,4.35,0,0,0-2,.5A4.22,4.22,0,0,0,2.34,6.62V46.34a4.2,4.2,0,0,0,2.29,3.78,4.22,4.22,0,0,0,4.42-.27L37.71,30a4.27,4.27,0,0,0,0-7h0L9.05,3.11A4.2,4.2,0,0,0,6.62,2.33ZM12,25.05c2.14,0,3.8,1,3.81,3.52v.3c0,2.63-1.68,3.64-3.76,3.64-2.47,0-3.81-1.41-3.81-2.92,0-.75.39-1,1-1,.89,0,1.05.36,1.05.81,0,.79.73,1.22,1.66,1.22a1.56,1.56,0,0,0,1.71-1.79v-.32c0-1.22-.64-1.57-1.69-1.57H9.63c-.66,0-.83-.55-.83-1.06v-.41l.42-4.4c0-.4.16-.66.4-.66h5c.41,0,.63.5.63,1s-.22,1-.63,1H11l-.2,2.58Zm13.06.76H22.31c-.42,0-.64.54-.64,1s.22,1.1.64,1.1h1.31v.79c0,1.26-.65,1.86-1.7,1.86a1.67,1.67,0,0,1-1.79-1.86v-4.5a1.67,1.67,0,0,1,1.81-1.86,1.48,1.48,0,0,1,1.68,1.6c0,.51.51.66,1.05.66.7,0,1-.19,1-1,0-1.93-1.63-3.09-3.86-3.09-2,0-3.75,1-3.75,3.7v4.5c0,2.69,1.69,3.69,3.82,3.69s3.79-1,3.79-3.69V26.49a.65.65,0,0,0-.61-.68Z"/>
        </g>
    </g>
</svg>