<svg viewBox="0 0 16 12" xmlns="http://www.w3.org/2000/svg">
  <path d="M15.358 2.666C10.998-.89 4.738-.89.378 2.666c-.23.193-.365.472-.377.77-.01.298.102.587.313.798.2.198.47.31.752.31.256 0 .505-.09.704-.25 3.557-2.88 8.643-2.88 12.2 0 .2.16.45.25.705.25.282 0 .552-.112.752-.31.21-.21.323-.5.31-.8-.014-.297-.15-.576-.38-.768zm-3.125 2.992c-2.614-1.852-6.112-1.852-8.726 0-.246.184-.402.465-.427.77-.024.308.085.61.3.83.2.203.476.316.762.315.212 0 .42-.064.592-.187 1.873-1.336 4.388-1.336 6.26 0 .174.123.38.188.593.187.287 0 .56-.112.763-.315.217-.22.328-.523.304-.83-.023-.308-.18-.59-.427-.775l.006.005zM7.87 8.538c-.64-.007-1.27.18-1.803.533-.124.094-.202.236-.213.39-.012.155.045.307.155.417l1.86 1.85 1.86-1.85c.11-.11.168-.262.156-.416-.01-.154-.09-.296-.213-.39-.535-.356-1.165-.543-1.808-.537l.005.005z" fill="currentColor" fill-rule="evenodd"/>
</svg>
